<svg enable-background="new 0 0 500 500" viewBox="0 0 500 500" xmlns="http://www.w3.org/2000/svg" xmlns:xlink="http://www.w3.org/1999/xlink"><radialGradient id="a" cx="220.9284" cy="288.3103" gradientTransform="matrix(1 0 0 -1 0 500)" gradientUnits="userSpaceOnUse" r="404.3959"><stop offset=".5128" stop-color="#fff"/><stop offset="1" stop-color="#dee0ed"/></radialGradient><clipPath id="b"><path d="m1 1h1l-1 1z"/></clipPath><clipPath id="c" clip-path="url(#b)"><path d="m-1-1h-1l1-1z"/></clipPath><linearGradient id="d" gradientTransform="matrix(.9899 -.142 -.142 -.9899 176.1452 314.822)" gradientUnits="userSpaceOnUse" x1="213.7851" x2="31.8276" y1="184.2596" y2="-60.8259"><stop offset="0"/><stop offset="1" stop-color="#fff"/></linearGradient><linearGradient id="e" gradientTransform="matrix(.9899 -.142 -.142 -.9899 176.1452 314.822)" gradientUnits="userSpaceOnUse" x1="213.7851" x2="31.8276" y1="184.2596" y2="-60.8259"><stop offset="0"/><stop offset="1"/></linearGradient><circle cx="250.7" cy="249" fill="url(#a)" r="243.4"/><g fill="none" stroke="#fff"><path d="m194 284.6h30v67.7h-30z" stroke-miterlimit="9.9999" transform="matrix(.7071 -.7071 .7071 .7071 -163.9352 241.0811)"/><path d="m7.4 240.9c-.1 2.7-.1 5.4-.1 8.1 0 1.6 0 3.1.1 4.7l48.6 48.6c3.9-8.2 6.3-16.4 7.4-24.4l-46.5-46.5z" stroke-miterlimit="10"/><path d="m247.9 334.5h30v75.6h-30z" stroke-miterlimit="9.9999" transform="matrix(.7071 -.7071 .7071 .7071 -186.2745 294.945)"/><path d="m261.3 282.9h106.8v75.6h-106.8z" stroke-miterlimit="9.9999" transform="matrix(.7071 -.7071 .7071 .7071 -134.6048 316.4206)"/><path d="m362.1 257.3h50.9v36.3h-50.9z" stroke-miterlimit="9.9999" transform="matrix(.7071 -.7071 .7071 .7071 -81.2705 354.7382)"/><path d="m160.9 193.2h106.8v54.3h-106.8z" stroke-miterlimit="9.9999" transform="matrix(.7071 -.7071 .7071 .7071 -93.0134 216.0862)"/><path d="m208.8 372.2h33v75.6h-33z" stroke-miterlimit="9.9999" transform="matrix(.7071 -.7071 .7071 .7071 -223.904 279.4175)"/><path d="m154.9 322.2h33v67.7h-33z" stroke-miterlimit="9.9999" transform="matrix(.7071 -.7071 .7071 .7071 -201.5345 225.4826)"/><path d="m252 144.1h22.7v54.3h-22.7z" stroke-miterlimit="9.9999" transform="matrix(.7071 -.7071 .7071 .7071 -43.9493 236.4058)"/><path d="m271.2 124.4h23.6v54.3h-23.6z" stroke-miterlimit="9.9999" transform="matrix(.7071 -.7071 .7071 .7071 -24.2847 244.517)"/><path d="m335.5 139.1h37.9v67.7h-37.9z" stroke-miterlimit="9.9999" transform="matrix(.7071 -.7071 .7071 .7071 -18.4722 301.3213)"/><path d="m43.4 204.9-23.2 23.2 43.8 43.8c1.8-26.9-9.5-51.2-20.6-67z" stroke-miterlimit="10"/><path d="m81.9 283.5 20.1-20.1-21.6-21.6c3.1 13 4 27.1 1.5 41.7z" stroke-miterlimit="10"/><path d="m108.5 282.5h33v54.3h-33z" stroke-miterlimit="9.9999" transform="matrix(.7071 -.7071 .7071 .7071 -182.3122 179.0831)"/><path d="m83.7 166.7h30v82.9h-30z" stroke-miterlimit="9.9999" transform="matrix(.7071 -.7071 .7071 .7071 -118.291 130.7821)"/><path d="m147.6 244.9h30v54.3h-30z" stroke-miterlimit="9.9999" transform="matrix(.7071 -.7071 .7071 .7071 -144.7123 194.6814)"/><path d="m289.1 99.4h37.9v54.3h-37.9z" stroke-miterlimit="9.9999" transform="matrix(.7071 -.7071 .7071 .7071 .7504 254.9215)"/><path d="m158.9 89.4-33.3 33.3 57.1 57.2-3.3 3.3-57.1-57.2-38.9 38.9 58.6 58.6 75.5-75.5z" stroke-miterlimit="10"/><path d="m184.1 55.9h50.9v82.9h-50.9z" stroke-miterlimit="9.9999" transform="matrix(.7071 -.7071 .7071 .7071 -7.4567 176.669)"/><path d="m8.6 223.2c-.4 3.6-.7 7.1-.9 10.7l5.8-5.8z" stroke-miterlimit="10"/><path d="m255.7 463.7 26.7 26.7c13.2-1.7 26-4.5 38.4-8.2l-41.8-41.8z" stroke-miterlimit="10"/><path d="m298.4 183.8h22.7v67.7h-22.7z" stroke-miterlimit="9.9999" transform="matrix(.7071 -.7071 .7071 .7071 -63.1723 282.8059)"/><path d="m333.8 229.8h50.9v34.6h-50.9z" stroke-miterlimit="9.9999" transform="matrix(.7071 -.7071 .7071 .7071 -69.4817 326.4028)"/><path d="m317.6 164.1h23.6v67.7h-23.6z" stroke-miterlimit="9.9999" transform="matrix(.7071 -.7071 .7071 .7071 -43.5071 290.9166)"/><path d="m207.3 232.9h106.8v67.7h-106.8z" stroke-miterlimit="9.9999" transform="matrix(.7071 -.7071 .7071 .7071 -112.2353 262.4856)"/><path d="m403.3 222.6h37.9v36.3h-37.9z" stroke-miterlimit="9.9999" transform="matrix(.7071 -.7071 .7071 .7071 -46.5704 369.1204)"/><path d="m225.3 21.2h37.9v82.9h-37.9z" stroke-miterlimit="9.9999" transform="matrix(.7071 -.7071 .7071 .7071 27.243 191.0514)"/><path d="m375 195.1h37.9v34.6h-37.9z" stroke-miterlimit="9.9999" transform="matrix(.7071 -.7071 .7071 .7071 -34.7815 340.7849)"/></g><g fill="#f0f1f2" opacity=".6"><path d="m210.2 371.6-3.3-3.3-23.3 23.3-47.8-47.8 23.3-23.3-3.3-3.3-23.3 23.3-38.4-38.4-3.3 3.3 38.4 38.4-63.5 63.5c1 1.2 2 2.4 3.1 3.5l63.7-63.7 47.8 47.8-59.8 59.8c1.3.9 2.7 1.7 4.1 2.5l59.1-59.1 53.4 53.4 3.3-3.3-53.4-53.4z"/><path d="m43.4 204.9c-.2-.3-.4-.5-.6-.8l-2.6-2.6-23.3 23.3-7.5-7.5c-.3 2-.5 3.9-.7 5.9l4.9 4.9-5.8 5.8c-.1 2.3-.3 4.6-.3 6.9l9.4-9.4 46.5 46.5c.3-2 .5-4 .6-6l-43.8-43.8z"/><path d="m7.5 260.5 46.2 46.2c.8-1.5 1.5-2.9 2.2-4.4l-48.6-48.6c.1 2.3.1 4.5.2 6.8z"/><path d="m252.4 467 24.1 24.1c2-.2 3.9-.4 5.9-.7l-26.7-26.7z"/><path d="m342.9 390.5h4.7v79.2h-4.7z" transform="matrix(.7071 -.7071 .7071 .7071 -203.016 370.0931)"/><path d="m438.2 199.1 39.1-39.1c-.6-1.6-1.3-3.1-1.9-4.7l-40.5 40.5z"/><path d="m394.5 324.9 58.9 58.9c.9-1.3 1.8-2.6 2.6-4l-58.2-58.2z"/><path d="m418.4 270.2 3.3-3.3-25.7-25.7 26.8-26.8-3.3-3.3-26.7 26.9-24.5-24.5 26.8-26.8-3.3-3.3-26.8 26.8-47.8-47.8 26.8-26.8-3.3-3.3-26.8 26.8-38.4-38.4-3.3 3.3 38.4 38.4-16.7 16.7-38.4-38.4-3.3 3.3 38.4 38.4-16 16-38.4-38.4-3.3 3.3 38.4 38.4-75.6 75.6-38.4-38.4-3.3 3.3 38.4 38.4-21.2 21.2 3.3 3.3 21.2-21.2 47.8 47.8-21.2 21.2 3.3 3.3 21.2-21.2 53.4 53.4 3.3-3.3-53.4-53.4 75.6-75.6 53.4 53.4 3.3-3.3-25.7-25.7 36-36zm-104.5-104.5 47.8 47.8-16.7 16.7-47.8-47.8zm-67.1 162.7-47.8-47.9 75.6-75.6 47.8 47.8zm31-126.7 16-16 47.8 47.8-16 16zm75.6 75.6-24.4-24.5 36-36 24.5 24.5z"/><path d="m55.5 186.1 3.3 3.3 21.2-21.2 58.6 58.6 3.3-3.3-58.6-58.6 38.9-38.9 57.2 57.2 3.3-3.3-57.2-57.2 33.3-33.3 58.6 58.6 3.3-3.3-58.6-58.6 36-36 58.6 58.6 3.3-3.3-58.6-58.6 26.9-26.8-3.3-3.3-26.8 26.8-25.2-25.3c-1.6.6-3.3 1.1-4.9 1.7l26.8 26.8-36 36-39.1-39.1c-1.3.9-2.7 1.7-4 2.6l39.8 39.8-75.6 75.6-38-38c-.8 1.4-1.7 2.8-2.5 4.1l37.2 37.2z"/><path d="m455.1 274.8h4.7v62.3h-4.7z" transform="matrix(.7071 -.7071 .7071 .7071 -82.3651 413.0633)"/><path d="m412.4 67.1c-1.2-1-2.3-2.1-3.5-3.1l-52.9 52.9 3.3 3.3z"/><path d="m410.5 171.4 48.5-48.5c-.8-1.4-1.7-2.7-2.5-4.1l-49.2 49.2z"/></g><path d="m224.5 143.1h4.7v21.7h-4.7z" fill="#e2e2e2" transform="matrix(.7071 -.7071 .7071 .7071 -42.4391 205.4724)"/><path d="m246.3 129.7h4.7v14.8h-4.7z" fill="#e2e2e2" transform="matrix(.7071 -.7071 .7071 .7071 -24.1047 215.9641)"/><path d="m479.3 240.1 13.8-13.8c-.8-9.1-2.2-18-4-26.8l-25.2 25.2-146.2-146.1 45.5-45.5c-6.8-3.6-13.8-6.8-21-9.7l-39.8 39.8-57.6-57.6c-.7 0-1.5.1-2.2.1-2.3.1-4.6.2-6.9.3-6.5.4-12.9 1-19.3 1.9l70.6 70.6-66.1 66.1 15.4 15.4 66.1-66.1 146.2 146.2-169.6 169.5-146.2-146.2 100.1-100.1-15.4-15.3-100.1 100-91.8-91.8c-3 7.4-5.7 14.9-8.1 22.7l22.6 22.6s3 3.2 3.2 3.4c11.1 15.8 22.4 40.1 20.6 67-.1 2-.3 4-.6 6-1.1 8-3.5 16.2-7.4 24.4-.7 1.5-1.4 2.9-2.2 4.4-2.8 5.2-6.3 10.4-10.4 15.5l-18.3 18.2c2.9 7.2 6.2 14.2 9.7 21l82.7-82.7 146.3 146.3-62.4 62.4c8.8 1.8 17.7 3.1 26.8 4l51-51 41.8 41.8c7.7-2.3 15.3-5 22.7-8.1l-49.2-49.1 21.2-21.2 148.3-148.3 27.8 27.8c1.3-9.3 2.1-18.8 2.3-28.4zm-397.4 43.4c2.5-14.6 1.5-28.7-1.5-41.7l21.6 21.6z" fill="#d5d7db"/><path clip-path="url(#c)" d="m432.9 268.1c38.2-85-13.9-187.6-115.5-200.1-45.1-5.5-90.6 12.3-120.2 46.7-47.4 55.2-45.5 127.8-9.1 178.2 19.6 27.2 29.9 62.3 25.5 95.1v.3c-1.2 9.5 10.8 14.7 16.9 7.2 18.9-26.3 47.7-42.4 79.2-43.9 51.8-2.2 100.5-33 123.2-83.5z" fill="url(#d)"/><path d="m432.9 268.1c38.2-85-13.9-187.6-115.5-200.1-45.1-5.5-90.6 12.3-120.2 46.7-47.4 55.2-45.5 127.8-9.1 178.2 19.6 27.2 29.9 62.3 25.5 95.1v.3c-1.2 9.5 10.8 14.7 16.9 7.2 18.9-26.3 47.7-42.4 79.2-43.9 51.8-2.2 100.5-33 123.2-83.5z" fill="url(#e)" opacity=".3"/><path d="m349.6 215.7c0-83.5-80.4-148.3-168-121.2-38.9 12.1-69.6 43.3-81.1 82.4-18.5 62.6 9.8 121.2 58.1 149.1 26 15 47.4 40 55.9 68.4l.1.3c2.5 8.3 14.3 8 16.5-.3 5.8-28.5 23.4-52.2 48.7-65 41.3-21 69.8-64 69.8-113.7z" fill="#c1172a"/><ellipse cx="222.2" cy="215.7" fill="#fff" rx="40.5" ry="40.5"/></svg>