<svg xmlns="http://www.w3.org/2000/svg" xmlns:xlink="http://www.w3.org/1999/xlink" width="111.228" height="110.888" viewBox="0 0 111.228 110.888">
  <defs>
    <linearGradient id="linear-gradient" x1="0.843" y1="0.844" x2="0.147" y2="0.146" gradientUnits="objectBoundingBox">
      <stop offset="0" stop-color="#fff"/>
      <stop offset="1" stop-color="#cccfdb"/>
    </linearGradient>
    <linearGradient id="linear-gradient-2" x1="0.843" y1="0.844" x2="0.149" y2="0.148" xlink:href="#linear-gradient"/>
    <linearGradient id="linear-gradient-3" x1="0.844" y1="0.845" x2="0.15" y2="0.149" xlink:href="#linear-gradient"/>
    <linearGradient id="linear-gradient-4" x1="0.844" y1="0.845" x2="0.151" y2="0.15" xlink:href="#linear-gradient"/>
    <linearGradient id="linear-gradient-5" x1="0.844" y1="0.845" x2="0.153" y2="0.152" xlink:href="#linear-gradient"/>
    <linearGradient id="linear-gradient-6" x1="0.844" y1="0.845" x2="0.154" y2="0.153" xlink:href="#linear-gradient"/>
    <linearGradient id="linear-gradient-7" x1="0.845" y1="0.846" x2="0.156" y2="0.155" xlink:href="#linear-gradient"/>
    <linearGradient id="linear-gradient-8" x1="0.845" y1="0.846" x2="0.157" y2="0.156" xlink:href="#linear-gradient"/>
    <linearGradient id="linear-gradient-9" x1="0.845" y1="0.846" x2="0.158" y2="0.157" xlink:href="#linear-gradient"/>
    <linearGradient id="linear-gradient-10" x1="0.845" y1="0.846" x2="0.16" y2="0.159" xlink:href="#linear-gradient"/>
    <linearGradient id="linear-gradient-11" x1="0.845" y1="0.847" x2="0.161" y2="0.16" xlink:href="#linear-gradient"/>
    <linearGradient id="linear-gradient-12" x1="0.846" y1="0.847" x2="0.163" y2="0.162" xlink:href="#linear-gradient"/>
    <linearGradient id="linear-gradient-13" x1="0.846" y1="0.847" x2="0.164" y2="0.163" xlink:href="#linear-gradient"/>
    <linearGradient id="linear-gradient-14" x1="0.846" y1="0.847" x2="0.165" y2="0.164" xlink:href="#linear-gradient"/>
    <linearGradient id="linear-gradient-15" x1="0.846" y1="0.848" x2="0.167" y2="0.166" xlink:href="#linear-gradient"/>
    <linearGradient id="linear-gradient-16" x1="0.847" y1="0.848" x2="0.168" y2="0.167" xlink:href="#linear-gradient"/>
    <linearGradient id="linear-gradient-17" x1="0.847" y1="0.848" x2="0.17" y2="0.169" xlink:href="#linear-gradient"/>
    <linearGradient id="linear-gradient-18" x1="0.847" y1="0.848" x2="0.171" y2="0.17" xlink:href="#linear-gradient"/>
    <linearGradient id="linear-gradient-19" x1="0.847" y1="0.848" x2="0.172" y2="0.171" xlink:href="#linear-gradient"/>
    <linearGradient id="linear-gradient-20" x1="0.848" y1="0.849" x2="0.174" y2="0.173" xlink:href="#linear-gradient"/>
    <linearGradient id="linear-gradient-21" x1="0.848" y1="0.849" x2="0.175" y2="0.174" xlink:href="#linear-gradient"/>
    <linearGradient id="linear-gradient-22" x1="0.848" y1="0.849" x2="0.177" y2="0.176" xlink:href="#linear-gradient"/>
    <linearGradient id="linear-gradient-23" x1="0.848" y1="0.849" x2="0.178" y2="0.177" xlink:href="#linear-gradient"/>
    <linearGradient id="linear-gradient-24" x1="0.849" y1="0.85" x2="0.179" y2="0.178" xlink:href="#linear-gradient"/>
    <linearGradient id="linear-gradient-25" x1="0.849" y1="0.85" x2="0.181" y2="0.18" xlink:href="#linear-gradient"/>
    <linearGradient id="linear-gradient-26" x1="0.849" y1="0.85" x2="0.182" y2="0.181" xlink:href="#linear-gradient"/>
    <linearGradient id="linear-gradient-27" x1="0.849" y1="0.85" x2="0.184" y2="0.183" xlink:href="#linear-gradient"/>
    <linearGradient id="linear-gradient-28" x1="80.622" y1="24.067" x2="79.956" y2="23.4" xlink:href="#linear-gradient"/>
    <linearGradient id="linear-gradient-29" x1="81.449" y1="24.308" x2="80.783" y2="23.64" xlink:href="#linear-gradient"/>
    <linearGradient id="linear-gradient-30" x1="82.292" y1="24.553" x2="81.627" y2="23.885" xlink:href="#linear-gradient"/>
    <linearGradient id="linear-gradient-31" x1="83.153" y1="24.804" x2="82.488" y2="24.136" xlink:href="#linear-gradient"/>
    <linearGradient id="linear-gradient-32" x1="84.033" y1="25.06" x2="83.368" y2="24.393" xlink:href="#linear-gradient"/>
    <linearGradient id="linear-gradient-33" x1="84.933" y1="25.322" x2="84.267" y2="24.654" xlink:href="#linear-gradient"/>
    <linearGradient id="linear-gradient-34" x1="85.851" y1="25.589" x2="85.186" y2="24.922" xlink:href="#linear-gradient"/>
    <linearGradient id="linear-gradient-35" x1="86.79" y1="25.863" x2="86.125" y2="25.195" xlink:href="#linear-gradient"/>
    <linearGradient id="linear-gradient-36" x1="87.751" y1="26.142" x2="87.085" y2="25.474" xlink:href="#linear-gradient"/>
    <linearGradient id="linear-gradient-37" x1="88.732" y1="26.427" x2="88.067" y2="25.76" xlink:href="#linear-gradient"/>
    <linearGradient id="linear-gradient-38" x1="89.736" y1="26.72" x2="89.07" y2="26.052" xlink:href="#linear-gradient"/>
    <linearGradient id="linear-gradient-39" x1="90.763" y1="27.019" x2="90.097" y2="26.351" xlink:href="#linear-gradient"/>
    <linearGradient id="linear-gradient-40" x1="91.814" y1="27.325" x2="91.149" y2="26.657" xlink:href="#linear-gradient"/>
    <linearGradient id="linear-gradient-41" x1="92.89" y1="27.638" x2="92.224" y2="26.97" xlink:href="#linear-gradient"/>
    <linearGradient id="linear-gradient-42" x1="93.992" y1="27.958" x2="93.326" y2="27.291" xlink:href="#linear-gradient"/>
    <linearGradient id="linear-gradient-43" x1="95.121" y1="28.287" x2="94.455" y2="27.619" xlink:href="#linear-gradient"/>
    <linearGradient id="linear-gradient-44" x1="96.277" y1="28.623" x2="95.612" y2="27.956" xlink:href="#linear-gradient"/>
    <linearGradient id="linear-gradient-45" x1="97.462" y1="28.968" x2="96.797" y2="28.301" xlink:href="#linear-gradient"/>
    <linearGradient id="linear-gradient-46" x1="98.677" y1="29.322" x2="98.012" y2="28.654" xlink:href="#linear-gradient"/>
    <linearGradient id="linear-gradient-47" x1="99.923" y1="29.684" x2="99.258" y2="29.017" xlink:href="#linear-gradient"/>
    <linearGradient id="linear-gradient-48" x1="101.2" y1="30.057" x2="100.535" y2="29.389" xlink:href="#linear-gradient"/>
    <linearGradient id="linear-gradient-49" x1="102.512" y1="30.438" x2="101.846" y2="29.77" xlink:href="#linear-gradient"/>
    <linearGradient id="linear-gradient-51" x1="0.843" y1="0.844" x2="0.149" y2="0.148" xlink:href="#linear-gradient"/>
    <linearGradient id="linear-gradient-77" x1="91.205" y1="27.1" x2="90.539" y2="26.433" xlink:href="#linear-gradient"/>
    <linearGradient id="linear-gradient-78" x1="92.139" y1="27.372" x2="91.474" y2="26.705" xlink:href="#linear-gradient"/>
    <linearGradient id="linear-gradient-79" x1="93.096" y1="27.65" x2="92.43" y2="26.983" xlink:href="#linear-gradient"/>
    <linearGradient id="linear-gradient-80" x1="94.071" y1="27.934" x2="93.406" y2="27.266" xlink:href="#linear-gradient"/>
    <linearGradient id="linear-gradient-81" x1="95.068" y1="28.223" x2="94.402" y2="27.556" xlink:href="#linear-gradient"/>
    <linearGradient id="linear-gradient-82" x1="96.087" y1="28.519" x2="95.421" y2="27.851" xlink:href="#linear-gradient"/>
    <linearGradient id="linear-gradient-83" x1="97.126" y1="28.821" x2="96.46" y2="28.153" xlink:href="#linear-gradient"/>
    <linearGradient id="linear-gradient-84" x1="98.19" y1="29.131" x2="97.525" y2="28.463" xlink:href="#linear-gradient"/>
    <linearGradient id="linear-gradient-85" x1="99.278" y1="29.446" x2="98.613" y2="28.779" xlink:href="#linear-gradient"/>
    <linearGradient id="linear-gradient-86" x1="100.388" y1="29.769" x2="99.723" y2="29.101" xlink:href="#linear-gradient"/>
    <linearGradient id="linear-gradient-87" x1="101.527" y1="30.099" x2="100.861" y2="29.432" xlink:href="#linear-gradient"/>
    <linearGradient id="linear-gradient-88" x1="102.69" y1="30.438" x2="102.024" y2="29.77" xlink:href="#linear-gradient"/>
    <linearGradient id="linear-gradient-89" x1="103.88" y1="30.784" x2="103.215" y2="30.116" xlink:href="#linear-gradient"/>
    <linearGradient id="linear-gradient-90" x1="105.1" y1="31.138" x2="104.434" y2="30.47" xlink:href="#linear-gradient"/>
    <linearGradient id="linear-gradient-91" x1="106.348" y1="31.5" x2="105.682" y2="30.832" xlink:href="#linear-gradient"/>
    <linearGradient id="linear-gradient-92" x1="107.625" y1="31.871" x2="106.96" y2="31.204" xlink:href="#linear-gradient"/>
    <linearGradient id="linear-gradient-93" x1="108.936" y1="32.252" x2="108.27" y2="31.584" xlink:href="#linear-gradient"/>
    <linearGradient id="linear-gradient-94" x1="110.278" y1="32.642" x2="109.612" y2="31.975" xlink:href="#linear-gradient"/>
    <linearGradient id="linear-gradient-95" x1="111.654" y1="33.042" x2="110.988" y2="32.374" xlink:href="#linear-gradient"/>
    <linearGradient id="linear-gradient-96" x1="113.066" y1="33.452" x2="112.4" y2="32.784" xlink:href="#linear-gradient"/>
    <linearGradient id="linear-gradient-97" x1="114.511" y1="33.872" x2="113.845" y2="33.204" xlink:href="#linear-gradient"/>
    <linearGradient id="linear-gradient-98" x1="115.997" y1="34.304" x2="115.332" y2="33.636" xlink:href="#linear-gradient"/>
  </defs>
  <g id="Layer_40" data-name="Layer 40" transform="translate(0 0)">
    <g id="Group_454" data-name="Group 454" transform="translate(-2976.367 -51.273)">
      <g id="Group_448" data-name="Group 448">
        <g id="Group_447" data-name="Group 447">
          <g id="Group_445" data-name="Group 445">
            <path id="Path_1407" data-name="Path 1407" d="M3087.595,106.717a55.614,55.614,0,1,1-55.613-55.444A55.529,55.529,0,0,1,3087.595,106.717Z" fill="url(#linear-gradient)"/>
            <path id="Path_1408" data-name="Path 1408" d="M3087.037,106.717a55.056,55.056,0,1,1-55.055-54.887A54.972,54.972,0,0,1,3087.037,106.717Z" fill="url(#linear-gradient-2)"/>
            <path id="Path_1409" data-name="Path 1409" d="M3086.478,106.717a54.5,54.5,0,1,1-54.5-54.331A54.414,54.414,0,0,1,3086.478,106.717Z" fill="url(#linear-gradient-3)"/>
            <path id="Path_1410" data-name="Path 1410" d="M3085.92,106.717a53.939,53.939,0,1,1-53.938-53.774A53.856,53.856,0,0,1,3085.92,106.717Z" fill="url(#linear-gradient-4)"/>
            <path id="Path_1411" data-name="Path 1411" d="M3085.362,106.717a53.381,53.381,0,1,1-53.38-53.217A53.3,53.3,0,0,1,3085.362,106.717Z" fill="url(#linear-gradient-5)"/>
            <path id="Path_1412" data-name="Path 1412" d="M3084.8,106.717a52.822,52.822,0,1,1-52.821-52.66A52.741,52.741,0,0,1,3084.8,106.717Z" fill="url(#linear-gradient-6)"/>
            <path id="Path_1413" data-name="Path 1413" d="M3084.245,106.717a52.264,52.264,0,1,1-52.263-52.1A52.185,52.185,0,0,1,3084.245,106.717Z" fill="url(#linear-gradient-7)"/>
            <path id="Path_1414" data-name="Path 1414" d="M3083.686,106.717a51.705,51.705,0,1,1-51.7-51.547A51.626,51.626,0,0,1,3083.686,106.717Z" fill="url(#linear-gradient-8)"/>
            <path id="Path_1415" data-name="Path 1415" d="M3083.128,106.717a51.147,51.147,0,1,1-51.146-50.99A51.069,51.069,0,0,1,3083.128,106.717Z" fill="url(#linear-gradient-9)"/>
            <path id="Path_1416" data-name="Path 1416" d="M3082.569,106.717a50.588,50.588,0,1,1-50.587-50.434A50.511,50.511,0,0,1,3082.569,106.717Z" fill="url(#linear-gradient-10)"/>
            <path id="Path_1417" data-name="Path 1417" d="M3082.011,106.717a50.03,50.03,0,1,1-50.029-49.877A49.954,49.954,0,0,1,3082.011,106.717Z" fill="url(#linear-gradient-11)"/>
            <path id="Path_1418" data-name="Path 1418" d="M3081.453,106.717a49.472,49.472,0,1,1-49.471-49.32A49.4,49.4,0,0,1,3081.453,106.717Z" fill="url(#linear-gradient-12)"/>
            <path id="Path_1419" data-name="Path 1419" d="M3080.894,106.717a48.913,48.913,0,1,1-48.912-48.764A48.839,48.839,0,0,1,3080.894,106.717Z" fill="url(#linear-gradient-13)"/>
            <path id="Path_1420" data-name="Path 1420" d="M3080.336,106.717a48.355,48.355,0,1,1-48.354-48.207A48.282,48.282,0,0,1,3080.336,106.717Z" fill="url(#linear-gradient-14)"/>
            <path id="Path_1421" data-name="Path 1421" d="M3079.777,106.717a47.8,47.8,0,1,1-47.8-47.65A47.724,47.724,0,0,1,3079.777,106.717Z" fill="url(#linear-gradient-15)"/>
            <path id="Path_1422" data-name="Path 1422" d="M3079.219,106.717a47.238,47.238,0,1,1-47.237-47.094A47.166,47.166,0,0,1,3079.219,106.717Z" fill="url(#linear-gradient-16)"/>
            <path id="Path_1423" data-name="Path 1423" d="M3078.661,106.717a46.68,46.68,0,1,1-46.679-46.537A46.608,46.608,0,0,1,3078.661,106.717Z" fill="url(#linear-gradient-17)"/>
            <path id="Path_1424" data-name="Path 1424" d="M3078.1,106.717a46.121,46.121,0,1,1-46.12-45.98A46.051,46.051,0,0,1,3078.1,106.717Z" fill="url(#linear-gradient-18)"/>
            <path id="Path_1425" data-name="Path 1425" d="M3077.544,106.717a45.563,45.563,0,1,1-45.562-45.424A45.493,45.493,0,0,1,3077.544,106.717Z" fill="url(#linear-gradient-19)"/>
            <path id="Path_1426" data-name="Path 1426" d="M3076.985,106.717a45,45,0,1,1-45-44.867A44.936,44.936,0,0,1,3076.985,106.717Z" fill="url(#linear-gradient-20)"/>
            <path id="Path_1427" data-name="Path 1427" d="M3076.427,106.717a44.446,44.446,0,1,1-44.445-44.31A44.378,44.378,0,0,1,3076.427,106.717Z" fill="url(#linear-gradient-21)"/>
            <path id="Path_1428" data-name="Path 1428" d="M3075.868,106.717a43.887,43.887,0,1,1-43.886-43.753A43.82,43.82,0,0,1,3075.868,106.717Z" fill="url(#linear-gradient-22)"/>
            <path id="Path_1429" data-name="Path 1429" d="M3075.31,106.717a43.329,43.329,0,1,1-43.328-43.2A43.263,43.263,0,0,1,3075.31,106.717Z" fill="url(#linear-gradient-23)"/>
            <path id="Path_1430" data-name="Path 1430" d="M3074.752,106.717a42.771,42.771,0,1,1-42.77-42.64A42.706,42.706,0,0,1,3074.752,106.717Z" fill="url(#linear-gradient-24)"/>
            <path id="Path_1431" data-name="Path 1431" d="M3074.193,106.717a42.212,42.212,0,1,1-42.211-42.083A42.148,42.148,0,0,1,3074.193,106.717Z" fill="url(#linear-gradient-25)"/>
            <path id="Path_1432" data-name="Path 1432" d="M3073.635,106.717a41.654,41.654,0,1,1-41.653-41.527A41.591,41.591,0,0,1,3073.635,106.717Z" fill="url(#linear-gradient-26)"/>
            <path id="Path_1433" data-name="Path 1433" d="M3073.076,106.717a41.1,41.1,0,1,1-41.094-40.97A41.033,41.033,0,0,1,3073.076,106.717Z" fill="url(#linear-gradient-27)"/>
          </g>
          <g id="Group_446" data-name="Group 446">
            <path id="Path_1434" data-name="Path 1434" d="M2980.1,106.717a51.877,51.877,0,1,1,51.877,51.718A51.8,51.8,0,0,1,2980.1,106.717Z" opacity="0" fill="url(#linear-gradient-28)"/>
            <path id="Path_1435" data-name="Path 1435" d="M2980.637,106.717a51.345,51.345,0,1,1,51.345,51.188A51.266,51.266,0,0,1,2980.637,106.717Z" opacity="0.048" fill="url(#linear-gradient-29)"/>
            <path id="Path_1436" data-name="Path 1436" d="M2981.169,106.717a50.813,50.813,0,1,1,50.813,50.658A50.736,50.736,0,0,1,2981.169,106.717Z" opacity="0.095" fill="url(#linear-gradient-30)"/>
            <path id="Path_1437" data-name="Path 1437" d="M2981.7,106.717a50.281,50.281,0,1,1,50.282,50.127A50.206,50.206,0,0,1,2981.7,106.717Z" opacity="0.143" fill="url(#linear-gradient-31)"/>
            <path id="Path_1438" data-name="Path 1438" d="M2982.232,106.717a49.749,49.749,0,1,1,49.75,49.6A49.674,49.674,0,0,1,2982.232,106.717Z" opacity="0.19" fill="url(#linear-gradient-32)"/>
            <path id="Path_1439" data-name="Path 1439" d="M2982.764,106.717a49.217,49.217,0,1,1,49.218,49.067A49.142,49.142,0,0,1,2982.764,106.717Z" opacity="0.238" fill="url(#linear-gradient-33)"/>
            <path id="Path_1440" data-name="Path 1440" d="M2983.3,106.717a48.685,48.685,0,1,1,48.686,48.536A48.612,48.612,0,0,1,2983.3,106.717Z" opacity="0.286" fill="url(#linear-gradient-34)"/>
            <path id="Path_1441" data-name="Path 1441" d="M2983.828,106.717a48.153,48.153,0,1,1,48.154,48.006A48.08,48.08,0,0,1,2983.828,106.717Z" opacity="0.333" fill="url(#linear-gradient-35)"/>
            <path id="Path_1442" data-name="Path 1442" d="M2984.36,106.717a47.621,47.621,0,1,1,47.622,47.476A47.548,47.548,0,0,1,2984.36,106.717Z" opacity="0.381" fill="url(#linear-gradient-36)"/>
            <path id="Path_1443" data-name="Path 1443" d="M2984.892,106.717a47.089,47.089,0,1,1,47.09,46.946A47.018,47.018,0,0,1,2984.892,106.717Z" opacity="0.429" fill="url(#linear-gradient-37)"/>
            <path id="Path_1444" data-name="Path 1444" d="M2985.424,106.717a46.558,46.558,0,1,1,46.558,46.415A46.487,46.487,0,0,1,2985.424,106.717Z" opacity="0.476" fill="url(#linear-gradient-38)"/>
            <path id="Path_1445" data-name="Path 1445" d="M2985.956,106.717a46.026,46.026,0,1,1,46.026,45.885A45.956,45.956,0,0,1,2985.956,106.717Z" opacity="0.524" fill="url(#linear-gradient-39)"/>
            <path id="Path_1446" data-name="Path 1446" d="M2986.488,106.717a45.494,45.494,0,1,1,45.494,45.355A45.424,45.424,0,0,1,2986.488,106.717Z" opacity="0.571" fill="url(#linear-gradient-40)"/>
            <path id="Path_1447" data-name="Path 1447" d="M2987.019,106.717a44.962,44.962,0,1,1,44.963,44.824A44.894,44.894,0,0,1,2987.019,106.717Z" opacity="0.619" fill="url(#linear-gradient-41)"/>
            <path id="Path_1448" data-name="Path 1448" d="M2987.551,106.717a44.43,44.43,0,1,1,44.431,44.294A44.363,44.363,0,0,1,2987.551,106.717Z" opacity="0.667" fill="url(#linear-gradient-42)"/>
            <path id="Path_1449" data-name="Path 1449" d="M2988.083,106.717a43.9,43.9,0,1,1,43.9,43.764A43.832,43.832,0,0,1,2988.083,106.717Z" opacity="0.714" fill="url(#linear-gradient-43)"/>
            <path id="Path_1450" data-name="Path 1450" d="M2988.615,106.717a43.366,43.366,0,1,1,43.367,43.234A43.3,43.3,0,0,1,2988.615,106.717Z" opacity="0.762" fill="url(#linear-gradient-44)"/>
            <path id="Path_1451" data-name="Path 1451" d="M2989.147,106.717a42.834,42.834,0,1,1,42.835,42.7A42.77,42.77,0,0,1,2989.147,106.717Z" opacity="0.81" fill="url(#linear-gradient-45)"/>
            <path id="Path_1452" data-name="Path 1452" d="M2989.679,106.717a42.3,42.3,0,1,1,42.3,42.173A42.238,42.238,0,0,1,2989.679,106.717Z" opacity="0.857" fill="url(#linear-gradient-46)"/>
            <path id="Path_1453" data-name="Path 1453" d="M2990.211,106.717a41.77,41.77,0,1,1,41.771,41.643A41.707,41.707,0,0,1,2990.211,106.717Z" opacity="0.905" fill="url(#linear-gradient-47)"/>
            <path id="Path_1454" data-name="Path 1454" d="M2990.743,106.717a41.239,41.239,0,1,1,41.239,41.112A41.175,41.175,0,0,1,2990.743,106.717Z" opacity="0.952" fill="url(#linear-gradient-48)"/>
            <path id="Path_1455" data-name="Path 1455" d="M2991.275,106.717a40.707,40.707,0,1,1,40.707,40.582A40.645,40.645,0,0,1,2991.275,106.717Z" fill="url(#linear-gradient-49)"/>
          </g>
        </g>
      </g>
      <g id="Group_453" data-name="Group 453">
        <g id="Group_452" data-name="Group 452">
          <g id="Group_449" data-name="Group 449">
            <path id="Path_1456" data-name="Path 1456" d="M3080.821,108.756a49.1,49.1,0,1,1-49.1-48.954A49.03,49.03,0,0,1,3080.821,108.756Z" fill="url(#linear-gradient)"/>
            <path id="Path_1457" data-name="Path 1457" d="M3080.328,108.756a48.612,48.612,0,1,1-48.611-48.463A48.537,48.537,0,0,1,3080.328,108.756Z" fill="url(#linear-gradient-51)"/>
            <path id="Path_1458" data-name="Path 1458" d="M3079.835,108.756a48.118,48.118,0,1,1-48.118-47.971A48.046,48.046,0,0,1,3079.835,108.756Z" fill="url(#linear-gradient-3)"/>
            <path id="Path_1459" data-name="Path 1459" d="M3079.342,108.756a47.625,47.625,0,1,1-47.625-47.48A47.552,47.552,0,0,1,3079.342,108.756Z" fill="url(#linear-gradient-4)"/>
            <path id="Path_1460" data-name="Path 1460" d="M3078.848,108.756a47.132,47.132,0,1,1-47.131-46.988A47.06,47.06,0,0,1,3078.848,108.756Z" fill="url(#linear-gradient-5)"/>
            <path id="Path_1461" data-name="Path 1461" d="M3078.355,108.756a46.639,46.639,0,1,1-46.638-46.5A46.567,46.567,0,0,1,3078.355,108.756Z" fill="url(#linear-gradient-6)"/>
            <path id="Path_1462" data-name="Path 1462" d="M3077.862,108.756a46.146,46.146,0,1,1-46.145-46A46.076,46.076,0,0,1,3077.862,108.756Z" fill="url(#linear-gradient-7)"/>
            <path id="Path_1463" data-name="Path 1463" d="M3077.369,108.756a45.653,45.653,0,1,1-45.652-45.514A45.583,45.583,0,0,1,3077.369,108.756Z" fill="url(#linear-gradient-8)"/>
            <path id="Path_1464" data-name="Path 1464" d="M3076.876,108.756a45.16,45.16,0,1,1-45.159-45.022A45.091,45.091,0,0,1,3076.876,108.756Z" fill="url(#linear-gradient-9)"/>
            <path id="Path_1465" data-name="Path 1465" d="M3076.383,108.756a44.667,44.667,0,1,1-44.666-44.531A44.6,44.6,0,0,1,3076.383,108.756Z" fill="url(#linear-gradient-10)"/>
            <path id="Path_1466" data-name="Path 1466" d="M3075.89,108.756a44.174,44.174,0,1,1-44.173-44.039A44.107,44.107,0,0,1,3075.89,108.756Z" fill="url(#linear-gradient-11)"/>
            <path id="Path_1467" data-name="Path 1467" d="M3075.4,108.756a43.681,43.681,0,1,1-43.68-43.548A43.614,43.614,0,0,1,3075.4,108.756Z" fill="url(#linear-gradient-12)"/>
            <path id="Path_1468" data-name="Path 1468" d="M3074.9,108.756A43.188,43.188,0,1,1,3031.717,65.7,43.122,43.122,0,0,1,3074.9,108.756Z" fill="url(#linear-gradient-13)"/>
            <path id="Path_1469" data-name="Path 1469" d="M3074.411,108.756a42.695,42.695,0,1,1-42.694-42.564A42.63,42.63,0,0,1,3074.411,108.756Z" fill="url(#linear-gradient-14)"/>
            <path id="Path_1470" data-name="Path 1470" d="M3073.918,108.756a42.2,42.2,0,1,1-42.2-42.073A42.137,42.137,0,0,1,3073.918,108.756Z" fill="url(#linear-gradient-15)"/>
            <path id="Path_1471" data-name="Path 1471" d="M3073.425,108.756a41.709,41.709,0,1,1-41.708-41.581A41.645,41.645,0,0,1,3073.425,108.756Z" fill="url(#linear-gradient-16)"/>
            <path id="Path_1472" data-name="Path 1472" d="M3072.932,108.756a41.216,41.216,0,1,1-41.215-41.09A41.153,41.153,0,0,1,3072.932,108.756Z" fill="url(#linear-gradient-17)"/>
            <path id="Path_1473" data-name="Path 1473" d="M3072.439,108.756a40.723,40.723,0,1,1-40.722-40.6A40.661,40.661,0,0,1,3072.439,108.756Z" fill="url(#linear-gradient-18)"/>
            <path id="Path_1474" data-name="Path 1474" d="M3071.946,108.756a40.23,40.23,0,1,1-40.229-40.107A40.168,40.168,0,0,1,3071.946,108.756Z" fill="url(#linear-gradient-19)"/>
            <path id="Path_1475" data-name="Path 1475" d="M3071.453,108.756a39.737,39.737,0,1,1-39.736-39.615A39.676,39.676,0,0,1,3071.453,108.756Z" fill="url(#linear-gradient-20)"/>
            <path id="Path_1476" data-name="Path 1476" d="M3070.96,108.756a39.244,39.244,0,1,1-39.243-39.124A39.183,39.183,0,0,1,3070.96,108.756Z" fill="url(#linear-gradient-21)"/>
            <path id="Path_1477" data-name="Path 1477" d="M3070.467,108.756a38.75,38.75,0,1,1-38.75-38.632A38.692,38.692,0,0,1,3070.467,108.756Z" fill="url(#linear-gradient-22)"/>
            <path id="Path_1478" data-name="Path 1478" d="M3069.974,108.756a38.257,38.257,0,1,1-38.257-38.141A38.2,38.2,0,0,1,3069.974,108.756Z" fill="url(#linear-gradient-23)"/>
            <path id="Path_1479" data-name="Path 1479" d="M3069.48,108.756a37.764,37.764,0,1,1-37.763-37.649A37.707,37.707,0,0,1,3069.48,108.756Z" fill="url(#linear-gradient-24)"/>
            <path id="Path_1480" data-name="Path 1480" d="M3068.987,108.756a37.271,37.271,0,1,1-37.27-37.158A37.214,37.214,0,0,1,3068.987,108.756Z" fill="url(#linear-gradient-25)"/>
            <path id="Path_1481" data-name="Path 1481" d="M3068.494,108.756a36.778,36.778,0,1,1-36.777-36.666A36.722,36.722,0,0,1,3068.494,108.756Z" fill="url(#linear-gradient-26)"/>
            <path id="Path_1482" data-name="Path 1482" d="M3068,108.756a36.285,36.285,0,1,1-36.284-36.175A36.229,36.229,0,0,1,3068,108.756Z" fill="url(#linear-gradient-27)"/>
          </g>
          <g id="Group_450" data-name="Group 450">
            <path id="Path_1483" data-name="Path 1483" d="M2985.913,108.756a45.8,45.8,0,1,1,45.8,45.664A45.735,45.735,0,0,1,2985.913,108.756Z" opacity="0" fill="url(#linear-gradient-77)"/>
            <path id="Path_1484" data-name="Path 1484" d="M2986.382,108.756a45.335,45.335,0,1,1,45.335,45.2A45.266,45.266,0,0,1,2986.382,108.756Z" opacity="0.048" fill="url(#linear-gradient-78)"/>
            <path id="Path_1485" data-name="Path 1485" d="M2986.852,108.756a44.865,44.865,0,1,1,44.865,44.727A44.8,44.8,0,0,1,2986.852,108.756Z" opacity="0.095" fill="url(#linear-gradient-79)"/>
            <path id="Path_1486" data-name="Path 1486" d="M2987.322,108.756a44.4,44.4,0,1,1,44.4,44.259A44.328,44.328,0,0,1,2987.322,108.756Z" opacity="0.143" fill="url(#linear-gradient-80)"/>
            <path id="Path_1487" data-name="Path 1487" d="M2987.791,108.756a43.926,43.926,0,1,1,43.926,43.791A43.859,43.859,0,0,1,2987.791,108.756Z" opacity="0.19" fill="url(#linear-gradient-81)"/>
            <path id="Path_1488" data-name="Path 1488" d="M2988.261,108.756a43.456,43.456,0,1,1,43.456,43.323A43.39,43.39,0,0,1,2988.261,108.756Z" opacity="0.238" fill="url(#linear-gradient-82)"/>
            <path id="Path_1489" data-name="Path 1489" d="M2988.73,108.756a42.987,42.987,0,1,1,42.987,42.855A42.922,42.922,0,0,1,2988.73,108.756Z" opacity="0.286" fill="url(#linear-gradient-83)"/>
            <path id="Path_1490" data-name="Path 1490" d="M2989.2,108.756a42.517,42.517,0,1,1,42.517,42.386A42.452,42.452,0,0,1,2989.2,108.756Z" opacity="0.333" fill="url(#linear-gradient-84)"/>
            <path id="Path_1491" data-name="Path 1491" d="M2989.67,108.756a42.047,42.047,0,1,1,42.047,41.918A41.983,41.983,0,0,1,2989.67,108.756Z" opacity="0.381" fill="url(#linear-gradient-85)"/>
            <path id="Path_1492" data-name="Path 1492" d="M2990.139,108.756a41.578,41.578,0,1,1,41.578,41.45A41.514,41.514,0,0,1,2990.139,108.756Z" opacity="0.429" fill="url(#linear-gradient-86)"/>
            <path id="Path_1493" data-name="Path 1493" d="M2990.609,108.756a41.108,41.108,0,1,1,41.108,40.982A41.045,41.045,0,0,1,2990.609,108.756Z" opacity="0.476" fill="url(#linear-gradient-87)"/>
            <path id="Path_1494" data-name="Path 1494" d="M2991.079,108.756a40.638,40.638,0,1,1,40.638,40.513A40.577,40.577,0,0,1,2991.079,108.756Z" opacity="0.524" fill="url(#linear-gradient-88)"/>
            <path id="Path_1495" data-name="Path 1495" d="M2991.548,108.756a40.169,40.169,0,1,1,40.169,40.045A40.107,40.107,0,0,1,2991.548,108.756Z" opacity="0.571" fill="url(#linear-gradient-89)"/>
            <path id="Path_1496" data-name="Path 1496" d="M2992.018,108.756a39.7,39.7,0,1,1,39.7,39.577A39.638,39.638,0,0,1,2992.018,108.756Z" opacity="0.619" fill="url(#linear-gradient-90)"/>
            <path id="Path_1497" data-name="Path 1497" d="M2992.488,108.756a39.229,39.229,0,1,1,39.229,39.109A39.169,39.169,0,0,1,2992.488,108.756Z" opacity="0.667" fill="url(#linear-gradient-91)"/>
            <path id="Path_1498" data-name="Path 1498" d="M2992.957,108.756a38.76,38.76,0,1,1,38.76,38.641A38.7,38.7,0,0,1,2992.957,108.756Z" opacity="0.714" fill="url(#linear-gradient-92)"/>
            <path id="Path_1499" data-name="Path 1499" d="M2993.427,108.756a38.29,38.29,0,1,1,38.29,38.172A38.231,38.231,0,0,1,2993.427,108.756Z" opacity="0.762" fill="url(#linear-gradient-93)"/>
            <path id="Path_1500" data-name="Path 1500" d="M2993.9,108.756a37.82,37.82,0,1,1,37.82,37.7A37.762,37.762,0,0,1,2993.9,108.756Z" opacity="0.81" fill="url(#linear-gradient-94)"/>
            <path id="Path_1501" data-name="Path 1501" d="M2994.366,108.756a37.351,37.351,0,1,1,37.351,37.236A37.294,37.294,0,0,1,2994.366,108.756Z" opacity="0.857" fill="url(#linear-gradient-95)"/>
            <path id="Path_1502" data-name="Path 1502" d="M2994.836,108.756a36.881,36.881,0,1,1,36.881,36.768A36.825,36.825,0,0,1,2994.836,108.756Z" opacity="0.905" fill="url(#linear-gradient-96)"/>
            <path id="Path_1503" data-name="Path 1503" d="M2995.3,108.756a36.412,36.412,0,1,1,36.412,36.3A36.357,36.357,0,0,1,2995.3,108.756Z" opacity="0.952" fill="url(#linear-gradient-97)"/>
            <path id="Path_1504" data-name="Path 1504" d="M2995.775,108.756a35.942,35.942,0,1,1,35.942,35.831A35.887,35.887,0,0,1,2995.775,108.756Z" fill="url(#linear-gradient-98)"/>
          </g>
        </g>
      </g>
    </g>
  </g>
</svg>
