<svg xmlns="http://www.w3.org/2000/svg" width="63.076" height="48.895" viewBox="0 0 63.076 48.895">
  <g id="Group_470" data-name="Group 470" transform="translate(-2211.943 -104.711)">
    <path id="Path_1566" data-name="Path 1566" d="M2267.094,110.285h-32.27V108a3.291,3.291,0,0,0-3.3-3.286h-7.558a3.291,3.291,0,0,0-3.3,3.286v2.288h-.805a7.911,7.911,0,0,0-7.924,7.9v27.521a7.912,7.912,0,0,0,7.924,7.9h47.227a7.913,7.913,0,0,0,7.925-7.9V118.185A7.913,7.913,0,0,0,2267.094,110.285Zm-23.613,35.133a13.473,13.473,0,1,1,13.513-13.472A13.492,13.492,0,0,1,2243.481,145.418Z" fill="#fff"/>
    <path id="Path_1567" data-name="Path 1567" d="M2250.523,130.521h-5.613v-5.6a1.429,1.429,0,0,0-2.859,0v5.6h-5.612a1.425,1.425,0,1,0,0,2.85h5.612v5.6a1.429,1.429,0,0,0,2.859,0v-5.6h5.613a1.425,1.425,0,1,0,0-2.85Z" fill="#fff"/>
  </g>
</svg>
