<svg xmlns="http://www.w3.org/2000/svg" width="31.382" height="23.895" viewBox="0 0 31.382 23.895">
  <g id="Group_50" data-name="Group 50" transform="translate(-2841.617 -1426.521)">
    <path id="Path_127" data-name="Path 127" d="M2864.316,1431.463a.022.022,0,0,1,.03-.01c.192.02.354,0,.36-.25h0c.067.013.123.011.116-.081l.007-.005a.393.393,0,0,0,.127.01c.559-.13.87-.662,1.387-.867.028-.011.016-.121.023-.186l.067-.051c.235-.021.567.112.53-.336h0c.282.024.453-.182.661-.315.3-.191.626-.351.914-.548.47-.32.892-.71,1.4-.987a.468.468,0,0,0,.272-.335h0c.211.06.347-.087.5-.187a3.124,3.124,0,0,1,.567-.376.642.642,0,0,0,.4-.419h.4a2.9,2.9,0,0,0,.546.581.432.432,0,0,0,.381.147v.794a.55.55,0,0,0-.473.252,2.378,2.378,0,0,1-.427.49.307.307,0,0,0-.078.332l-.016-.013.015.014c-.3-.025-.382.152-.381.408l0,0c-.126-.033-.169.009-.121.133l-.008.008c-.141-.062-.22.026-.307.117-.211.22-.415.445-.608.683-.109.135-.28.22-.227.433h0c-.109-.015-.153.031-.127.139l-.017,0h.017c-.05,0-.069.025-.051.074l-.007.015a.824.824,0,0,0-.635.657l-.021.019c-.237-.08-.237.064-.215.228h0a.183.183,0,0,0-.2.068c-.338.339-.7.66-1,1.025-.122.145-.343.258-.32.505l-.135.105a5.174,5.174,0,0,0-1.224,1.149,3.464,3.464,0,0,1-.656.713,1.025,1.025,0,0,0-.379.657h0c-.239-.011-.344.109-.332.342l-.022.016a1,1,0,0,0-.768.846.381.381,0,0,1-.184.193,1.039,1.039,0,0,0-.831.884l-.027.015c-.051-.023-.065-.009-.04.042l-.016.027c-.3.033-.473.271-.668.451-.128.117-.3.272-.212.5v0a.073.073,0,0,0-.07.082l-.054.051a1.1,1.1,0,0,0-.741.805l-.114.125a1.28,1.28,0,0,0-.878.924c-.105-.015-.149.03-.131.135h0a1,1,0,0,0-.674.719h0c-.337-.015-.4.226-.447.48l-.024-.011.024.012a.524.524,0,0,0-.475.528l-.059.051a.073.073,0,0,0-.074.074l0,0c-.121.095-.37-.234-.4.1a.619.619,0,0,1-.356.506c-.2.1-.192.23-.181.393l-.024.012a1,1,0,0,0-.7.78.524.524,0,0,1-.46-.185c.2.365-.109.505-.256.708-.109.151-.331.243-.243.491l-.011.012c-.192-.071-.168.053-.154.168l-.012-.012.013.01a1.425,1.425,0,0,0-.66.5,13.8,13.8,0,0,0-1.049,1.145c-.264.333-.615.572-.87.917a3.906,3.906,0,0,1-.861.856.652.652,0,0,0-.35.477h-.662c-.077-.2.052-.527-.342-.518-.031,0-.071-.051-.095-.087-.274-.408-.493-.85-.756-1.267-.122-.193-.229-.412-.349-.61-.407-.676-.848-1.33-1.258-2.005a3.955,3.955,0,0,0-.382-.711c-.27-.293-.4-.676-.641-.987-.2-.259-.257-.635-.621-.759h0a.731.731,0,0,0-.165-.531,18.347,18.347,0,0,1-1-1.65.946.946,0,0,0-.438-.457l.007-.018,0,.019c.115-.281-.15-.46-.22-.684a3.025,3.025,0,0,0-.585-.825c-.017-.022-.082-.006-.124-.007v-.005a.96.96,0,0,1,.169-.586.116.116,0,0,0-.01-.176.121.121,0,0,0-.2.02c-.189.234-.237.062-.288-.1s-.113-.318-.334-.28v0c.009-.211.07-.455-.28-.433l-.009-.017a.25.25,0,0,0-.031-.33,1.293,1.293,0,0,1-.332-.625.568.568,0,0,0-.148-.249,1.932,1.932,0,0,1-.449-.666c-.069-.135-.12-.339-.353-.3l-.007-.014c.07-.169.035-.277-.169-.283h0c-.013-.252.005-.52-.321-.607v-.331c.277-.007.324-.253.44-.426a.746.746,0,0,1,1.212-.116.5.5,0,0,0,.479.133h0a.235.235,0,0,0,.09.261c.487.352.969.708,1.457,1.058.072.052.162.086.155.191s-.084.148-.18.159-.162.074-.125.18.144.085.226.069a.215.215,0,0,0,.129-.089c.155-.256.306-.176.475-.014.2.189.409.364.611.549a.275.275,0,0,0,.359.046l.017.013c-.047.136.045.2.135.267.519.4,1.019.817,1.56,1.189.919.63,1.749,1.38,2.641,2.05.317.238.541.272.827.037s.722-.325.861-.744h0c.07.016.128.014.116-.084l0,0a1.559,1.559,0,0,0,.872-.422c.148-.1.393-.138.337-.412v0a.371.371,0,0,0,.254-.046c.765-.4,1.418-.97,2.165-1.394.189-.108.361-.244.547-.356.132-.079.236-.163.2-.337h.006c.21.059.361-.071.511-.174a3.687,3.687,0,0,1,.689-.5,11.241,11.241,0,0,0,1.107-.725,14.068,14.068,0,0,0,1.355-.955c.831-.562,1.674-1.106,2.512-1.657.1-.067.209-.13.187-.28h0C2864.092,1431.807,2864.283,1431.743,2864.316,1431.463Zm-17.482,5.321c-.127-.07-.239-.193-.413-.2-.079,0-.18.011-.148.118.06.206.276.131.416.2C2846.746,1436.927,2846.821,1436.9,2846.834,1436.784Z" fill="#fff"/>
    <path id="Path_128" data-name="Path 128" d="M2851.217,1450.416a33.547,33.547,0,0,1-2.388-3.7c-.606-.952-1.175-1.929-1.761-2.894a.755.755,0,0,1-.163-.354c.364.124.421.5.621.759.241.311.371.694.641.987a3.955,3.955,0,0,1,.382.711c.41.675.851,1.329,1.258,2.005.12.2.227.417.349.61.263.417.482.859.756,1.267.024.036.064.088.095.087.394-.009.265.322.342.518Z" fill="#fff"/>
    <path id="Path_129" data-name="Path 129" d="M2852.011,1450.416a.652.652,0,0,1,.35-.477,3.906,3.906,0,0,0,.861-.856c.255-.345.606-.584.87-.917a13.8,13.8,0,0,1,1.049-1.145,1.425,1.425,0,0,1,.66-.5,6.063,6.063,0,0,1-1.017,1.152c-.82.871-1.594,1.786-2.478,2.595a.106.106,0,0,0-.03.145Z" fill="#fff"/>
    <path id="Path_130" data-name="Path 130" d="M2843.748,1433.922a.5.5,0,0,1-.479-.133.746.746,0,0,0-1.212.116c-.116.173-.163.419-.44.426v-.264a1.685,1.685,0,0,0,.186-.181,1.077,1.077,0,0,1,1.661-.229C2843.568,1433.733,2843.7,1433.785,2843.748,1433.922Z" fill="#fff"/>
    <path id="Path_131" data-name="Path 131" d="M2871.675,1426.521a.642.642,0,0,1-.4.419,3.124,3.124,0,0,0-.567.376c-.15.1-.286.247-.5.187a7.606,7.606,0,0,1,1.019-.737c.092-.073.216-.112.248-.245Z" fill="#fff"/>
    <path id="Path_132" data-name="Path 132" d="M2872.021,1429.117a.307.307,0,0,1,.078-.332,2.378,2.378,0,0,0,.427-.49.55.55,0,0,1,.473-.252v.133c-.3.154-.452.462-.691.679Z" fill="#fff"/>
    <path id="Path_133" data-name="Path 133" d="M2873,1427.249a.432.432,0,0,1-.381-.147,2.9,2.9,0,0,1-.546-.581h.265a4.37,4.37,0,0,0,.662.6Z" fill="#fff"/>
    <path id="Path_134" data-name="Path 134" d="M2873,1427.117a4.37,4.37,0,0,1-.662-.6h.066" fill="#fff"/>
    <path id="Path_135" data-name="Path 135" d="M2841.938,1435.269c-.16-.03-.107-.308-.321-.276v-.331C2841.943,1434.749,2841.925,1435.017,2841.938,1435.269Z" fill="#fff"/>
    <path id="Path_136" data-name="Path 136" d="M2865.389,1436.256a1.025,1.025,0,0,1,.379-.657,3.464,3.464,0,0,0,.656-.713,5.174,5.174,0,0,1,1.224-1.149c.041.088-.014.149-.066.2C2866.848,1434.71,2866.155,1435.517,2865.389,1436.256Z" fill="#fff"/>
    <path id="Path_137" data-name="Path 137" d="M2867.783,1433.632c-.023-.247.2-.36.32-.505.307-.365.666-.686,1-1.025a.183.183,0,0,1,.2-.068A10.091,10.091,0,0,1,2867.783,1433.632Z" fill="#fff"/>
    <path id="Path_138" data-name="Path 138" d="M2855.965,1446.346c-.088-.248.134-.34.243-.491.147-.2.458-.343.256-.708a.524.524,0,0,0,.46.185A5.8,5.8,0,0,1,2855.965,1446.346Z" fill="#fff"/>
    <path id="Path_139" data-name="Path 139" d="M2870.365,1430.9c-.053-.213.118-.3.227-.433.193-.238.4-.463.608-.683.087-.091.166-.179.307-.117A8.089,8.089,0,0,1,2870.365,1430.9Z" fill="#fff"/>
    <path id="Path_140" data-name="Path 140" d="M2857.644,1444.54c-.011-.163-.014-.29.181-.393a.619.619,0,0,0,.356-.506c.028-.332.277,0,.4-.1A4.567,4.567,0,0,1,2857.644,1444.54Z" fill="#fff"/>
    <path id="Path_141" data-name="Path 141" d="M2862.29,1439.575c-.088-.232.084-.387.212-.5.2-.18.367-.418.668-.451A5.078,5.078,0,0,1,2862.29,1439.575Z" fill="#fff"/>
    <path id="Path_142" data-name="Path 142" d="M2863.253,1438.536a1.039,1.039,0,0,1,.831-.884A5.115,5.115,0,0,1,2863.253,1438.536Z" fill="#fff"/>
    <path id="Path_143" data-name="Path 143" d="M2860.432,1441.559a1.284,1.284,0,0,1,.879-.924A5.649,5.649,0,0,1,2860.432,1441.559Z" fill="#fff"/>
    <path id="Path_144" data-name="Path 144" d="M2864.268,1437.459a1,1,0,0,1,.768-.846A4.6,4.6,0,0,1,2864.268,1437.459Z" fill="#fff"/>
    <path id="Path_145" data-name="Path 145" d="M2856.924,1445.332a1,1,0,0,1,.7-.78A2.889,2.889,0,0,1,2856.924,1445.332Z" fill="#fff"/>
    <path id="Path_146" data-name="Path 146" d="M2861.425,1440.51a1.1,1.1,0,0,1,.741-.805A4.713,4.713,0,0,1,2861.425,1440.51Z" fill="#fff"/>
    <path id="Path_147" data-name="Path 147" d="M2859.63,1442.412a1,1,0,0,1,.674-.719A2.929,2.929,0,0,1,2859.63,1442.412Z" fill="#fff"/>
    <path id="Path_148" data-name="Path 148" d="M2869.547,1431.786a.824.824,0,0,1,.635-.657A3.659,3.659,0,0,1,2869.547,1431.786Z" fill="#fff"/>
    <path id="Path_149" data-name="Path 149" d="M2858.709,1443.42a.524.524,0,0,1,.475-.528A1.782,1.782,0,0,1,2858.709,1443.42Z" fill="#fff"/>
    <path id="Path_150" data-name="Path 150" d="M2859.184,1442.891c.048-.254.11-.495.447-.48A1.266,1.266,0,0,1,2859.184,1442.891Z" fill="#fff"/>
    <path id="Path_151" data-name="Path 151" d="M2871.639,1429.526c0-.256.082-.433.381-.408A1.039,1.039,0,0,1,2871.639,1429.526Z" fill="#fff"/>
    <path id="Path_152" data-name="Path 152" d="M2865.058,1436.6c-.012-.233.093-.353.332-.342A1.015,1.015,0,0,1,2865.058,1436.6Z" fill="#fff"/>
    <path id="Path_153" data-name="Path 153" d="M2869.311,1432.033c-.022-.164-.022-.308.215-.228A.389.389,0,0,1,2869.311,1432.033Z" fill="#fff"/>
    <path id="Path_154" data-name="Path 154" d="M2855.8,1446.526c-.014-.115-.038-.239.154-.168C2855.939,1446.447,2855.9,1446.518,2855.8,1446.526Z" fill="#fff"/>
    <path id="Path_155" data-name="Path 155" d="M2871.515,1429.663c-.048-.124,0-.166.121-.133A.137.137,0,0,1,2871.515,1429.663Z" fill="#fff"/>
    <path id="Path_156" data-name="Path 156" d="M2870.24,1431.043c-.026-.108.018-.154.127-.139A.131.131,0,0,1,2870.24,1431.043Z" fill="#fff"/>
    <path id="Path_157" data-name="Path 157" d="M2860.3,1441.694c-.018-.1.026-.15.131-.136A.164.164,0,0,1,2860.3,1441.694Z" fill="#fff"/>
    <path id="Path_158" data-name="Path 158" d="M2863.186,1438.593c-.025-.051-.011-.065.04-.042A.057.057,0,0,1,2863.186,1438.593Z" fill="#fff"/>
    <path id="Path_159" data-name="Path 159" d="M2858.576,1443.545a.073.073,0,0,1,.074-.074Z" fill="#fff"/>
    <path id="Path_160" data-name="Path 160" d="M2870.189,1431.114c-.018-.049,0-.072.051-.074Z" fill="#fff"/>
    <path id="Path_161" data-name="Path 161" d="M2862.22,1439.654a.073.073,0,0,1,.07-.082Z" fill="#fff"/>
    <path id="Path_162" data-name="Path 162" d="M2852.986,1439.143c-.139.419-.568.5-.861.744s-.51.2-.827-.037c-.892-.67-1.722-1.42-2.641-2.05-.541-.372-1.041-.792-1.56-1.189-.09-.069-.182-.131-.135-.267.637.39,1.2.88,1.8,1.326.9.671,1.784,1.354,2.67,2.038a.453.453,0,0,0,.616.027A4.236,4.236,0,0,1,2852.986,1439.143Z" fill="#fff"/>
    <path id="Path_163" data-name="Path 163" d="M2863.848,1431.8c.022.15-.084.213-.187.28-.838.551-1.681,1.095-2.512,1.657a14.068,14.068,0,0,1-1.355.955,11.241,11.241,0,0,1-1.107.725,3.687,3.687,0,0,0-.689.5c-.15.1-.3.233-.511.174.806-.65,1.7-1.176,2.547-1.762,1.159-.8,2.33-1.579,3.5-2.37A.659.659,0,0,1,2863.848,1431.8Z" fill="#fff"/>
    <path id="Path_164" data-name="Path 164" d="M2846.945,1436.331a.275.275,0,0,1-.359-.046c-.2-.185-.413-.36-.611-.549-.169-.162-.32-.242-.475.014a.215.215,0,0,1-.129.089c-.082.016-.186.043-.226-.069s.015-.166.125-.18.173-.054.18-.159-.083-.139-.155-.191c-.488-.35-.97-.706-1.457-1.058a.235.235,0,0,1-.09-.261,8.5,8.5,0,0,1,1.2.856c.649.471,1.282.964,1.921,1.45A.479.479,0,0,1,2846.945,1436.331Z" fill="#fff"/>
    <path id="Path_165" data-name="Path 165" d="M2857.481,1436.093c.038.174-.066.258-.2.337-.186.112-.358.248-.547.356-.747.424-1.4,1-2.165,1.394a.371.371,0,0,1-.254.046c.862-.67,1.8-1.224,2.7-1.849C2857.161,1436.274,2857.28,1436.112,2857.481,1436.093Z" fill="#fff"/>
    <path id="Path_166" data-name="Path 166" d="M2870.208,1427.5a.468.468,0,0,1-.272.335c-.5.277-.926.667-1.4.987-.288.2-.614.357-.914.548-.208.133-.379.339-.661.315a16.592,16.592,0,0,1,1.721-1.212A10.126,10.126,0,0,1,2870.208,1427.5Z" fill="#fff"/>
    <path id="Path_167" data-name="Path 167" d="M2866.368,1430.074c-.007.065.005.175-.023.186-.517.2-.828.737-1.387.867a.393.393,0,0,1-.127-.01A11.94,11.94,0,0,1,2866.368,1430.074Z" fill="#fff"/>
    <path id="Path_168" data-name="Path 168" d="M2854.318,1438.223c.056.274-.189.313-.337.412a1.559,1.559,0,0,1-.872.422A6.331,6.331,0,0,1,2854.318,1438.223Z" fill="#fff"/>
    <path id="Path_169" data-name="Path 169" d="M2866.965,1429.687c.037.448-.3.315-.53.336A1.332,1.332,0,0,1,2866.965,1429.687Z" fill="#fff"/>
    <path id="Path_170" data-name="Path 170" d="M2864.316,1431.463c-.033.28-.224.344-.466.339A1,1,0,0,1,2864.316,1431.463Z" fill="#fff"/>
    <path id="Path_171" data-name="Path 171" d="M2864.706,1431.2c-.006.247-.168.27-.36.25A.767.767,0,0,1,2864.706,1431.2Z" fill="#fff"/>
    <path id="Path_172" data-name="Path 172" d="M2853.1,1439.06c.012.1-.046.1-.116.084A.1.1,0,0,1,2853.1,1439.06Z" fill="#fff"/>
    <path id="Path_173" data-name="Path 173" d="M2864.824,1431.122c.007.092-.049.094-.116.081A.105.105,0,0,1,2864.824,1431.122Z" fill="#fff"/>
    <path id="Path_174" data-name="Path 174" d="M2846.907,1443.473a5.239,5.239,0,0,1-.707-1.089,11.31,11.31,0,0,1-.9-1.549.946.946,0,0,1,.438.457,18.347,18.347,0,0,0,1,1.65A.731.731,0,0,1,2846.907,1443.473Z" fill="#fff"/>
    <path id="Path_175" data-name="Path 175" d="M2843.424,1437.738a20.581,20.581,0,0,1-1.313-2.173c.233-.036.284.168.353.3a1.932,1.932,0,0,0,.449.666.568.568,0,0,1,.148.249,1.293,1.293,0,0,0,.332.625A.25.25,0,0,1,2843.424,1437.738Z" fill="#fff"/>
    <path id="Path_176" data-name="Path 176" d="M2844.373,1439.315a4.773,4.773,0,0,1-.66-1.123c.221-.038.282.116.334.28s.1.335.288.1a.121.121,0,0,1,.2-.02.116.116,0,0,1,.01.176A.96.96,0,0,0,2844.373,1439.315Z" fill="#fff"/>
    <path id="Path_177" data-name="Path 177" d="M2845.3,1440.836a9.288,9.288,0,0,1-.929-1.516c.042,0,.107-.015.124.007a3.025,3.025,0,0,1,.585.825C2845.153,1440.376,2845.418,1440.555,2845.3,1440.836Z" fill="#fff"/>
    <path id="Path_178" data-name="Path 178" d="M2846.834,1436.784c-.013.117-.088.143-.145.117-.14-.065-.356.01-.416-.2-.032-.107.069-.12.148-.118C2846.595,1436.591,2846.707,1436.714,2846.834,1436.784Z" fill="#fff"/>
    <path id="Path_179" data-name="Path 179" d="M2843.713,1438.188a.841.841,0,0,1-.28-.433C2843.783,1437.733,2843.722,1437.977,2843.713,1438.188Z" fill="#fff"/>
    <path id="Path_180" data-name="Path 180" d="M2842.1,1435.551a.392.392,0,0,1-.169-.283C2842.139,1435.274,2842.174,1435.382,2842.1,1435.551Z" fill="#fff"/>
  </g>
</svg>
