<svg xmlns="http://www.w3.org/2000/svg" width="28.462" height="30.402" viewBox="0 0 28.462 30.402">
  <g id="Group_396" data-name="Group 396" transform="translate(-234.145 -1599.963)">
    <path id="Path_1213" data-name="Path 1213" d="M258.813,1626.7v1.834a1.867,1.867,0,0,1-1.9,1.833H237.941a3.734,3.734,0,0,1-3.8-3.667v-23.069a3.733,3.733,0,0,1,3.8-3.666h18.974a1.867,1.867,0,0,1,1.9,1.833Z" fill="#fff"/>
    <path id="Path_1214" data-name="Path 1214" d="M262.607,1603.629v24.9a1.866,1.866,0,0,1-1.9,1.833H260.2a3.556,3.556,0,0,0,.514-1.833V1601.8a3.551,3.551,0,0,0-.514-1.833h.514a1.866,1.866,0,0,1,1.9,1.833Z" fill="#fff"/>
    <path id="Path_1215" data-name="Path 1215" d="M262.607,1603.629" fill="#fff"/>
    <path id="Path_1216" data-name="Path 1216" d="M246.479,1615.543c3.5,0,4.337-2.76,4.337-5.074a4.341,4.341,0,0,0-8.676,0c0,2.314,1.151,5.074,4.339,5.074Zm0,0" fill="#c1172a"/>
    <path id="Path_1217" data-name="Path 1217" d="M247.083,1616.125h-1.209c-2.377,0-5.943,2.1-5.943,4.7s-.807,4.7,1.571,4.7h9.955c2.377,0,1.57-2.106,1.57-4.7s-3.566-4.7-5.944-4.7Zm0,0" fill="#c1172a"/>
    <rect id="Rectangle_176" data-name="Rectangle 176" width="1.897" height="1.897" transform="translate(260.711 1605.52)" fill="#c1172a"/>
    <rect id="Rectangle_177" data-name="Rectangle 177" width="1.897" height="1.897" transform="translate(260.711 1623.123)" fill="#c1172a"/>
    <rect id="Rectangle_178" data-name="Rectangle 178" width="1.897" height="1.897" transform="translate(260.711 1613.646)" fill="#c1172a"/>
  </g>
</svg>
