<svg xmlns="http://www.w3.org/2000/svg" xmlns:xlink="http://www.w3.org/1999/xlink" width="487" height="487" viewBox="0 0 487 487">
  <defs>
    <linearGradient id="linear-gradient" y1="-1.729" x2="1" y2="-1.729" gradientUnits="objectBoundingBox">
      <stop offset="0" stop-color="#ff5739"/>
      <stop offset="1" stop-color="#ffb037"/>
    </linearGradient>
  </defs>
  <g id="file" transform="translate(-4.653 -546.346)">
    <circle id="Ellipse_2" data-name="Ellipse 2" cx="243.5" cy="243.5" r="243.5" transform="translate(4.653 546.346)" fill="url(#linear-gradient)"/>
    <g id="Group_5" data-name="Group 5">
      <path id="Path_14" data-name="Path 14" d="M383.153,777.247v141.4c0,7.4-1.3,14.5-4.9,21-7.5,13.4-19.6,18.4-34.2,18.4-33.9.1-67.7,0-101.6,0h-109.3c-20.3,0-34.8-12.3-37.7-31.8a72.032,72.032,0,0,1-.4-11.4q0-113.25-.1-226.4a23.4,23.4,0,0,1,7.6-18q32.7-31.8,65.1-63.9a29.43,29.43,0,0,1,21.6-8.8h157c21.3,0,36.9,15.6,36.9,36.8v142.7Zm-29.8.8v-138.1c0-2.8-.1-5.7-.2-8.5-.1-2.5-1.6-3.8-4-4.1a27.869,27.869,0,0,0-4.1-.1h-136.7c-5.9,0-7.2,1.2-7.2,7.1,0,14,.1,28.1,0,42.1-.2,16.2-10.3,26.2-26.4,26.4-6.5.1-13.1,0-19.6,0h-24c-4.7,0-6,1.6-5.9,6.2.1,4.3.1,8.6.1,12.9v198.3c0,7.6,1,8.6,8.4,8.6h213.6c4.5,0,5.7-1.2,5.9-5.6.1-1.2.1-2.5.1-3.7Z" fill="#fff"/>
      <path id="Path_15" data-name="Path 15" d="M335.653,802.747v8.1h-192.4v-8.1Z" fill="#fff"/>
      <path id="Path_16" data-name="Path 16" d="M335.653,869.947v8.2h-192.4v-8.2Z" fill="#fff"/>
      <path id="Path_17" data-name="Path 17" d="M143.153,776.347v-7.9h192.4v7.9Z" fill="#fff"/>
      <path id="Path_18" data-name="Path 18" d="M143.153,844.247v-7.9h192.4v7.9Z" fill="#fff"/>
      <path id="Path_19" data-name="Path 19" d="M334.953,743.947h-100.1v-100.1h100.1Zm-2.3-97.6h-94.7c-.1,1.3-.2,2.4-.2,3.5,0,28.9.1,57.9-.1,86.8,0,3.7,1.2,4.5,4.6,4.5q43.2-.15,86.4,0c3.4,0,4-1.1,4-4.2-.1-23.6-.1-47.3,0-70.9Z" fill="#fff"/>
      <path id="Path_20" data-name="Path 20" d="M335.053,901.947v10.4h-86.7v-10.4Z" fill="#fff"/>
      <path id="Path_21" data-name="Path 21" d="M284.553,734.247c-13.2,0-26.3-.1-39.5.1-3,0-4.3-.7-4-3.9a108.369,108.369,0,0,0,0-11.4c-.2-4.9,2.2-8,6.6-9.5,5.5-1.8,11.1-3.2,16.7-4.6,3.8-1,6.9-3.1,8.1-6.8a10.854,10.854,0,0,0-.2-6.9c-1-2.8-3.2-5.2-4.7-7.8a6.236,6.236,0,0,1-1.1-3.4c.1-4.8.3-9.6.7-14.3.4-5.1,3.3-8.3,7.9-10.1a28.693,28.693,0,0,1,20.6-.3c6.1,2.2,8.9,5.9,9.1,12.4.2,3.8.5,7.6.5,11.4a10.732,10.732,0,0,1-1.4,4.5c-1.1,2.1-2.7,4-3.9,6.2-3.2,5.9-1.3,11.9,5,14.5,4.3,1.7,8.9,2.6,13.4,3.9a54.059,54.059,0,0,1,8,2.8c3.8,1.9,4.2,5.1,3.1,9.1-.9,3.1-.7,6.6-.5,9.8.2,3.5-.8,4.7-4.5,4.6-13.3-.5-26.6-.3-39.9-.3Z" fill="#fff"/>
    </g>
  </g>
</svg>
