<svg xmlns="http://www.w3.org/2000/svg" width="33.078" height="31.252" viewBox="0 0 33.078 31.252">
  <g id="Group_442" data-name="Group 442" transform="translate(-2922.782 -542.3)">
    <g id="Group_439" data-name="Group 439">
      <path id="Path_1389" data-name="Path 1389" d="M2955.336,573.552a.52.52,0,0,1-.327-.115l-2.18-1.743a2.829,2.829,0,0,0-3.159-.243,11.977,11.977,0,0,1-5.821,1.508h-2.115a11.871,11.871,0,0,1-8.666-3.71.524.524,0,1,1,.758-.723,10.835,10.835,0,0,0,7.908,3.385h2.115a10.931,10.931,0,0,0,5.311-1.375,3.874,3.874,0,0,1,4.323.339l1.326,1.061-.032-11.062a10.691,10.691,0,0,0-3.2-7.671.524.524,0,0,1,.736-.746,11.732,11.732,0,0,1,3.51,8.415l.036,12.155a.525.525,0,0,1-.524.525Z" fill="#f2f6f7"/>
      <path id="Path_1390" data-name="Path 1390" d="M2923.306,568.253a.536.536,0,0,1-.228-.052.523.523,0,0,1-.3-.474l.037-12.884a12.406,12.406,0,0,1,3.711-8.9,12.658,12.658,0,0,1,8.951-3.647h2.241a12.662,12.662,0,1,1,0,25.324h-2.241a12.662,12.662,0,0,1-6.155-1.6,3.032,3.032,0,0,0-3.383.26l-2.31,1.849A.524.524,0,0,1,2923.306,568.253Zm12.175-24.9a11.617,11.617,0,0,0-8.215,3.345,11.363,11.363,0,0,0-3.4,8.151v0l-.034,11.79,1.456-1.165a4.073,4.073,0,0,1,4.547-.357,11.619,11.619,0,0,0,5.645,1.462h2.241a11.614,11.614,0,1,0,0-23.228Zm-12.138,11.5h0Z" fill="#f2f6f7"/>
    </g>
    <g id="Group_441" data-name="Group 441">
      <path id="Path_1391" data-name="Path 1391" d="M2936.537,563.617a8.39,8.39,0,1,1,8.39-8.39A8.4,8.4,0,0,1,2936.537,563.617Zm0-15.732a7.342,7.342,0,1,0,7.342,7.342A7.35,7.35,0,0,0,2936.537,547.885Z" fill="#f2f6f7"/>
      <g id="Group_440" data-name="Group 440">
        <path id="Path_1392" data-name="Path 1392" d="M2936.537,563.617a.523.523,0,0,1-.524-.524V547.361a.524.524,0,1,1,1.048,0v15.732A.524.524,0,0,1,2936.537,563.617Z" fill="#f2f6f7"/>
        <path id="Path_1393" data-name="Path 1393" d="M2944.4,555.751H2928.67a.524.524,0,0,1,0-1.048H2944.4a.524.524,0,0,1,0,1.048Z" fill="#f2f6f7"/>
        <path id="Path_1394" data-name="Path 1394" d="M2934.31,563.145a.524.524,0,0,1-.456-.265,15.828,15.828,0,0,1,.01-15.448.524.524,0,0,1,.891.552,14.634,14.634,0,0,0-1.6,4.4,14.124,14.124,0,0,0,1.608,9.977.523.523,0,0,1-.455.782Z" fill="#f2f6f7"/>
        <path id="Path_1395" data-name="Path 1395" d="M2936.668,552.186a15.35,15.35,0,0,1-2.537-.212,13.966,13.966,0,0,1-3.827-1.176.524.524,0,0,1,.483-.93,13.22,13.22,0,0,0,3.555,1.079,13.563,13.563,0,0,0,8.052-1.087.524.524,0,1,1,.45.947A14.309,14.309,0,0,1,2936.668,552.186Z" fill="#f2f6f7"/>
        <path id="Path_1396" data-name="Path 1396" d="M2930.546,560.7a.524.524,0,0,1-.225-1,14.615,14.615,0,0,1,8.713-1.168,14.024,14.024,0,0,1,3.827,1.176.524.524,0,0,1-.483.93,13.253,13.253,0,0,0-3.555-1.078,13.572,13.572,0,0,0-8.053,1.086A.512.512,0,0,1,2930.546,560.7Z" fill="#f2f6f7"/>
        <path id="Path_1397" data-name="Path 1397" d="M2938.838,563.023a.525.525,0,0,1-.453-.787,13.621,13.621,0,0,0,1.607-9.777,14.193,14.193,0,0,0-1.6-4.316.524.524,0,0,1,.886-.559,15.3,15.3,0,0,1,.011,15.177A.523.523,0,0,1,2938.838,563.023Z" fill="#f2f6f7"/>
      </g>
    </g>
  </g>
</svg>
