<svg xmlns="http://www.w3.org/2000/svg" width="215.208" height="152.33" viewBox="0 0 215.208 152.33">
  <g id="Group_554" data-name="Group 554" transform="translate(-79.896 -299.973)">
    <g id="Group_549" data-name="Group 549" transform="translate(2.48 -8)">
      <path id="Path_1663" data-name="Path 1663" d="M255.1,354.467a24.18,24.18,0,0,0-19.71-9.75,24.983,24.983,0,0,0-13.051,3.643l-28.8,17.605L147.7,337.932a25.058,25.058,0,0,0-13.051-3.644,24.184,24.184,0,0,0-19.707,9.75,20.247,20.247,0,0,0-3.477,16.37,21.643,21.643,0,0,0,10.1,13.822l52.661,32.211a37,37,0,0,0,19.306,5.377h0a36.992,36.992,0,0,0,19.306-5.377L238.165,391a2.792,2.792,0,0,0,.38-.273l9.934-6.073c.136-.081.268-.17.4-.258.26-.148.516-.3.772-.45a3.141,3.141,0,0,0,.589-.483,21.381,21.381,0,0,0,8.336-12.634,20.235,20.235,0,0,0-3.474-16.363M191.7,371.862c.052.033.1.063.152.092l19.611,11.993a36.379,36.379,0,0,0,18.017,5.3l-.68.416c-.08.048-.148.111-.224.166l-19.238,11.731a30.574,30.574,0,0,1-31.594,0l-52.664-32.216a15.812,15.812,0,0,1-7.388-10.1,14.809,14.809,0,0,1,2.549-11.973,17.684,17.684,0,0,1,14.412-7.132,18.323,18.323,0,0,1,9.541,2.669Zm53.881,7.523a30.149,30.149,0,0,1-30.608-.317l-15.677-9.588,26.559-16.241a18.3,18.3,0,0,1,9.541-2.67,17.707,17.707,0,0,1,14.42,7.132,14.8,14.8,0,0,1,2.537,11.967,15.742,15.742,0,0,1-6.772,9.717" fill="#fff"/>
      <path id="Path_1664" data-name="Path 1664" d="M176.645,335.309a3.149,3.149,0,0,0,3.034,2.054,3.452,3.452,0,0,0,.949-.133,2.9,2.9,0,0,0,2.085-3.665L178.1,319.942a3.241,3.241,0,0,0-3.978-1.921,2.9,2.9,0,0,0-2.085,3.666Z" fill="#fff"/>
      <path id="Path_1665" data-name="Path 1665" d="M193.537,337.363a3.065,3.065,0,0,0,3.178-2.928V310.9a3.188,3.188,0,0,0-6.355,0v23.534a3.064,3.064,0,0,0,3.177,2.928" fill="#fff"/>
      <path id="Path_1666" data-name="Path 1666" d="M206.447,337.23a3.4,3.4,0,0,0,.948.133,3.139,3.139,0,0,0,3.03-2.054l4.614-13.622a2.9,2.9,0,0,0-2.085-3.666,3.239,3.239,0,0,0-3.978,1.925l-4.614,13.619a2.894,2.894,0,0,0,2.085,3.665" fill="#fff"/>
    </g>
    <g id="Group_550" data-name="Group 550" transform="translate(2.48 -8)">
      <path id="Path_1667" data-name="Path 1667" d="M87.022,439.977a1.686,1.686,0,0,1,1.338.571,2.141,2.141,0,0,1,.6,1.035,2.432,2.432,0,0,1,.051.651v15.61a2,2,0,0,1-.543,1.454,1.893,1.893,0,0,1-1.5.689,2.174,2.174,0,0,1-1.479-.633,2.233,2.233,0,0,1-.571-1.51V444.263H79.466a1.937,1.937,0,0,1-1.394-.571,2.1,2.1,0,0,1-.656-1.572,2.256,2.256,0,0,1,.6-1.543,2.022,2.022,0,0,1,1.446-.6h7.556Zm7.447,0H94.5a1.9,1.9,0,0,1,1.307.516,1.933,1.933,0,0,1,.711,1.6v.058a2.037,2.037,0,0,1-.683,1.576,1.969,1.969,0,0,1-1.363.538H89.011s-2-4.083-2.241-4.286Z" fill="#fff"/>
      <path id="Path_1668" data-name="Path 1668" d="M113.487,439.978a1.821,1.821,0,0,1,1.5.714,2.035,2.035,0,0,1,.52,1.428V453.1a2.546,2.546,0,0,0-.983-.743,2.222,2.222,0,0,0-1.063-.229H102.791v5.714a2.024,2.024,0,0,1-.543,1.462,1.894,1.894,0,0,1-1.5.681,2.16,2.16,0,0,1-1.474-.622,2.251,2.251,0,0,1-.572-1.521V446.866a3.931,3.931,0,0,0,.708.6,2.714,2.714,0,0,0,1.23.372h10.776v-5.747a2.093,2.093,0,0,1,.492-1.37,1.857,1.857,0,0,1,1.526-.743Zm-12.714,0a1.823,1.823,0,0,1,1.5.714,2.039,2.039,0,0,1,.519,1.428v6.16c0,.511-4.064-.7-4.092-1.267v-4.922a2.093,2.093,0,0,1,.492-1.37,1.857,1.857,0,0,1,1.526-.743ZM115.5,454.837v3a2.007,2.007,0,0,1-.548,1.462,1.878,1.878,0,0,1-1.5.681,2.074,2.074,0,0,1-1.474-.622,2.232,2.232,0,0,1-.572-1.521v-5.99c0-.6,4.092-10.8,4.092,2.99" fill="#fff"/>
      <path id="Path_1669" data-name="Path 1669" d="M127.265,448.093l-5.734,10.746a2.115,2.115,0,0,1-.759.829,2.052,2.052,0,0,1-1.067.313,1.987,1.987,0,0,1-1.474-.652,2.242,2.242,0,0,1-.324-2.518l6.545-12.231c.384-.688,7.739-6.045,2.813,3.513m1.5-8a1.468,1.468,0,0,1,.576.313,1.976,1.976,0,0,1,.6.743l8.347,15.662a1.933,1.933,0,0,1,.275,1.027,2.129,2.129,0,0,1-.631,1.542,1.873,1.873,0,0,1-1.418.6,2.036,2.036,0,0,1-1.063-.313,2.35,2.35,0,0,1-.763-.829l-6.957-13a2.046,2.046,0,0,0-.463-.629,2.149,2.149,0,0,0-.548-.438.061.061,0,0,0-.055-.052,2.577,2.577,0,0,0-1.007-.317h-.276a2.505,2.505,0,0,0-.927.173l1.8-3.4a2.063,2.063,0,0,1,.707-.832,1.925,1.925,0,0,1,1.147-.369,1.675,1.675,0,0,1,.655.115" fill="#fff"/>
      <path id="Path_1670" data-name="Path 1670" d="M141.124,439.977a1.865,1.865,0,0,1,1.307.486,1.968,1.968,0,0,1,.711,1.343l1.255,8.888a1.443,1.443,0,0,1,.028.257c1.294,9.031-3.089,9.226-4.068.372l-1.255-8.887v-.03c0-.114-.028-.2-.028-.287a2.365,2.365,0,0,1,.3-1.141,1.867,1.867,0,0,1,1.419-.972h.051a.988.988,0,0,1,.276-.029m8.483,7.657a1.527,1.527,0,0,1,.927.317,1.762,1.762,0,0,1,.519.427,2.42,2.42,0,0,1,.384.457l2.289,2.915q.576.729.9,1.116a5.887,5.887,0,0,0,.9.718,3.773,3.773,0,0,0,.735.224c.164,0,.3.03.412.03a3.073,3.073,0,0,0,.707-.111,2.493,2.493,0,0,0,1.067-.578l-.683,4.775v.059a2.682,2.682,0,0,1-.328.884,2.371,2.371,0,0,1-.955.8,2.022,2.022,0,0,1-.739.144h-.3a2.4,2.4,0,0,1-1.23-.659c-.056-.052-.192-.228-.408-.486l-4.311-5.544-4.447,5.743-.272.287a2.078,2.078,0,0,1-1.067.63c-.108,0-.215.029-.379.029h-.084a2.983,2.983,0,0,1-.683-.114,2.348,2.348,0,0,1-.544-.346,2.467,2.467,0,0,1-.571-.74c-.056-.173-.084-.317-.14-.486a.251.251,0,0,0-.024-.144v-.059l-.683-4.885a2.7,2.7,0,0,0,.763.486,3.026,3.026,0,0,0,.983.2c.164,0,.3-.029.407-.029.22-.059.412-.114.576-.173a3.644,3.644,0,0,0,1.007-.689,9.794,9.794,0,0,0,.655-.743c.276-.343.463-.6.627-.77l1.994-2.573c.164-.2.3-.343.352-.4a1.459,1.459,0,0,1,.383-.342,1.742,1.742,0,0,1,.9-.346.631.631,0,0,1,.22-.03h.136Zm8.594-7.628h.056a1.829,1.829,0,0,1,1.391.972,2.123,2.123,0,0,1,.327,1.141,1.089,1.089,0,0,1-.028.287v.03l-1.254,8.917v.059c-.991,9.366-5.342,9.513-4.092-.346a1.8,1.8,0,0,0,.024-.2l1.283-9.061a2.142,2.142,0,0,1,.711-1.314,1.913,1.913,0,0,1,1.31-.515.8.8,0,0,1,.272.029" fill="#fff"/>
      <path id="Path_1671" data-name="Path 1671" d="M186.41,440.149a1.866,1.866,0,0,1,.708.545l8.978,11.115a3.446,3.446,0,0,0,.791.721,3.177,3.177,0,0,0,1.418.365,2.955,2.955,0,0,0,1.227-.287,3.156,3.156,0,0,0,.823-.6v5.828a2.123,2.123,0,0,1-.519,1.436,2.012,2.012,0,0,1-1.531.707,1.933,1.933,0,0,1-1.606-.828l-8.926-11.005a.72.72,0,0,0-.136-.169,2.034,2.034,0,0,0-.815-.63,2.577,2.577,0,0,0-1.2-.287h-.056a2.646,2.646,0,0,0-1.226.287,2.129,2.129,0,0,0-.791.63v-5.861a2.079,2.079,0,0,1,.627-1.543,1.967,1.967,0,0,1,1.418-.6,1.916,1.916,0,0,1,.819.173m1.227,6.778v10.912a2.09,2.09,0,0,1-.575,1.484,1.871,1.871,0,0,1-1.471.659,1.973,1.973,0,0,1-1.634-.854,2.239,2.239,0,0,1-.411-1.289V447.152c.028-.549,4.091-1,4.091-.225m11.979-6.435a1.985,1.985,0,0,1,.739,1.627v8.287c0,14.66-4.1,9.576-4.1,0v-8.287a2.079,2.079,0,0,1,.627-1.543,1.951,1.951,0,0,1,2.729-.084" fill="#fff"/>
      <path id="Path_1672" data-name="Path 1672" d="M218.71,440.606a2.018,2.018,0,0,1,.6,1.513,1.942,1.942,0,0,1-.135.773,3.4,3.4,0,0,1-.548.829l-5.374,6.686c-.052.058-.136.173-.244.287s-.139.2-.191.257c-.192.229-.356.431-.492.6a2.943,2.943,0,0,1-.575.4,2.232,2.232,0,0,1-.847.2,1.994,1.994,0,0,1-1.335-.545c-.08-.085-.243-.254-.463-.512l-5.918-7.345a8.947,8.947,0,0,1-.547-.828,2.805,2.805,0,0,1-.136-.8,2.13,2.13,0,0,1,.6-1.513,1.942,1.942,0,0,1,1.443-.629,1.825,1.825,0,0,1,1.067.313,2.722,2.722,0,0,1,.791.832l4.5,5.57,4.5-5.6a3.845,3.845,0,0,1,.791-.832,2.048,2.048,0,0,1,1.067-.283,1.851,1.851,0,0,1,1.442.629m-5.754,9.373v7.861a2.1,2.1,0,0,1-.547,1.458,1.883,1.883,0,0,1-1.5.684,1.98,1.98,0,0,1-1.471-.659,2.085,2.085,0,0,1-.571-1.483v-9.469c.679.655,3.408,2.267,4.091,1.608" fill="#fff"/>
      <path id="Path_1673" data-name="Path 1673" d="M170.205,448.093l-5.733,10.746a2.153,2.153,0,0,1-.759.829,2.055,2.055,0,0,1-1.067.313,1.983,1.983,0,0,1-1.475-.652,2.252,2.252,0,0,1-.327-2.518l6.548-12.231c.384-.688,7.74-6.045,2.813,3.513m1.5-8a1.471,1.471,0,0,1,.575.313,1.984,1.984,0,0,1,.595.743l8.351,15.662a1.922,1.922,0,0,1,.272,1.027,2.138,2.138,0,0,1-.628,1.542,1.871,1.871,0,0,1-1.418.6,2.039,2.039,0,0,1-1.063-.313,2.38,2.38,0,0,1-.767-.829l-6.952-13a2.048,2.048,0,0,0-.464-.629,2.128,2.128,0,0,0-.547-.438.061.061,0,0,0-.056-.052,2.592,2.592,0,0,0-1.007-.317h-.276a2.494,2.494,0,0,0-.927.173l1.8-3.4a2.057,2.057,0,0,1,.708-.832,1.923,1.923,0,0,1,1.146-.369,1.68,1.68,0,0,1,.656.115" fill="#fff"/>
      <path id="Path_1674" data-name="Path 1674" d="M239.213,439.977a2.031,2.031,0,0,1,1.522.578,2.206,2.206,0,0,1,.683,1.046,2.238,2.238,0,0,1,.06.67V458.12a1.925,1.925,0,0,1-.619,1.48,2.276,2.276,0,0,1-1.71.7,2.617,2.617,0,0,1-1.674-.644,2.109,2.109,0,0,1-.652-1.539V444.333h-6.205a2.342,2.342,0,0,1-1.586-.582,2.037,2.037,0,0,1-.743-1.6,2.174,2.174,0,0,1,.679-1.564,2.45,2.45,0,0,1,1.65-.612h8.6Zm8.474,0h.032a2.29,2.29,0,0,1,1.487.527,1.88,1.88,0,0,1,.807,1.62v.062a1.97,1.97,0,0,1-.775,1.594,2.381,2.381,0,0,1-1.551.553H240.28s-1.954-4.153-2.23-4.356Z" fill="#fff"/>
      <path id="Path_1675" data-name="Path 1675" d="M257.208,445.63l-8.067,13.507a2.258,2.258,0,0,1-.863.84,2.538,2.538,0,0,1-1.215.32,2.389,2.389,0,0,1-1.674-.663,2.088,2.088,0,0,1-.651-1.516,2.066,2.066,0,0,1,.276-1.046l8.007-13.357c.435-.7,4.343,1.628,4.187,1.915m.16-5.537a1.749,1.749,0,0,1,.651.32,2.062,2.062,0,0,1,.683.755l9.5,15.9a1.8,1.8,0,0,1,.311,1.046,2.065,2.065,0,0,1-.715,1.568,2.288,2.288,0,0,1-1.614.611,2.432,2.432,0,0,1-2.078-1.16l-7.915-13.209a2.15,2.15,0,0,0-.527-.641,2.489,2.489,0,0,0-.62-.434.066.066,0,0,0-.064-.059,3.229,3.229,0,0,0-1.15-.32h-.308a3.329,3.329,0,0,0-1.063.176l2.054-3.453a2.18,2.18,0,0,1,.807-.843,2.352,2.352,0,0,1,1.3-.376,2.136,2.136,0,0,1,.747.115" fill="#fff"/>
      <path id="Path_1676" data-name="Path 1676" d="M289.524,443.159c.459,2.982-2.761,2.448-3.1,2.264a6.91,6.91,0,0,0-4.626-1.093,6.632,6.632,0,0,0-4.376,1.712,5.36,5.36,0,0,0-1.8,4.1,5.541,5.541,0,0,0,1.83,4.116,6.212,6.212,0,0,0,4.348,1.686,6.106,6.106,0,0,0,4.686-2.006c.1-.114.156-.173.156-.2a2.238,2.238,0,0,1,1.243-.67,1.621,1.621,0,0,1,.495-.055,2.3,2.3,0,0,1,1.367.434,1.952,1.952,0,0,1,.867,1.1,1.544,1.544,0,0,1,.128.666,2,2,0,0,1-.408,1.2.4.4,0,0,0-.124.14,10.846,10.846,0,0,1-3.724,2.757,11.109,11.109,0,0,1-4.686.987,11.427,11.427,0,0,1-5.462-1.366,10.592,10.592,0,0,1-3.94-3.715,9.694,9.694,0,0,1,.032-10.187,10.332,10.332,0,0,1,3.94-3.689,10.981,10.981,0,0,1,5.43-1.362c2.113,0,6.6,1.421,7.731,3.181m2.481,5.526a1.968,1.968,0,0,1,.619,1.458v.11c0,1.624-1.274,4.348-2.081,5.8-.064-.435-3.408-2.57-3.656-2.537l.615-1.145h-4.247a2.31,2.31,0,0,1-1.9-.9,2.154,2.154,0,0,1-.431-1.278,2.03,2.03,0,0,1,.495-1.332,2.239,2.239,0,0,1,1.834-.847h7.04a2.3,2.3,0,0,1,1.71.67" fill="#fff"/>
    </g>
  </g>
</svg>
