<svg xmlns="http://www.w3.org/2000/svg" width="27.258" height="28.822" viewBox="0 0 27.258 28.822">
  <g id="Group_435" data-name="Group 435" transform="translate(-2921.885 -618.307)">
    <g id="Group_434" data-name="Group 434">
      <g id="Group_433" data-name="Group 433">
        <path id="Path_1381" data-name="Path 1381" d="M2939.523,640.276a.893.893,0,0,1-.626-.26l-6.728-6.727a.885.885,0,0,1,0-1.252l6.728-6.727a.885.885,0,0,1,1.251,1.251l-6.1,6.1,6.1,6.1a.886.886,0,0,1-.625,1.512Z" fill="#fff"/>
        <path id="Path_1382" data-name="Path 1382" d="M2948.258,633.549h-15.463a.886.886,0,0,1,0-1.772h15.463a.886.886,0,0,1,0,1.772Z" fill="#fff"/>
      </g>
      <path id="Path_1383" data-name="Path 1383" d="M2936.16,647.129h-13.391a.886.886,0,0,1-.884-.888V619.192a.885.885,0,0,1,.884-.885h13.391a.886.886,0,0,1,.884.885v3.642a.885.885,0,0,1-1.77,0v-2.755h-11.62v25.278h11.62v-2.73a.885.885,0,1,1,1.77,0v3.614A.886.886,0,0,1,2936.16,647.129Z" fill="#fff"/>
    </g>
  </g>
</svg>
