<svg xmlns="http://www.w3.org/2000/svg" xmlns:xlink="http://www.w3.org/1999/xlink" width="213.6" height="315.9" viewBox="0 0 213.6 315.9">
  <defs>
    <clipPath id="clip-path">
      <path id="Path_140" data-name="Path 140" d="M238.881,249.61c0,9.3,7.9,16.8,17.7,16.8s17.7-7.5,17.7-16.8Z" fill="none"/>
    </clipPath>
    <linearGradient id="linear-gradient" y1="-1.034" x2="1" y2="-1.034" gradientUnits="objectBoundingBox">
      <stop offset="0" stop-color="#fff"/>
      <stop offset="1" stop-color="#cccfdb"/>
    </linearGradient>
  </defs>
  <g id="person" transform="translate(-153.081 -112.91)">
    <g id="Group_31" data-name="Group 31">
      <path id="Path_121" data-name="Path 121" d="M281.081,326.31l-24.5-16.4-24.5,16.4v-56.7h49Z" fill="#ebb48b"/>
      <rect id="Rectangle_8" data-name="Rectangle 8" width="49" height="12.6" transform="translate(232.081 269.61)" fill="#efc6ab" opacity="0.4" style="isolation: isolate"/>
      <path id="Path_122" data-name="Path 122" d="M299.181,276.31h-85.3a10.029,10.029,0,0,1-10-10v-92.9a5.378,5.378,0,0,1,5.4-5.4h94.6a5.378,5.378,0,0,1,5.4,5.4v92.9A10.051,10.051,0,0,1,299.181,276.31Z" fill="#edbb98"/>
      <path id="Path_123" data-name="Path 123" d="M294.881,274.11h-76.5a8.963,8.963,0,0,1-9-9v-94.5a4.8,4.8,0,0,1,4.8-4.8h84.9a4.8,4.8,0,0,1,4.8,4.8v94.5A9.026,9.026,0,0,1,294.881,274.11Z" fill="#efc9b4"/>
      <g id="Group_15" data-name="Group 15">
        <path id="Path_124" data-name="Path 124" d="M305.681,142.01h-17.2a6.7,6.7,0,0,0-6.7,6.7v29.2h14.5a7.853,7.853,0,0,1,7.9,7.9v18.8a8.813,8.813,0,0,0,8.8,8.8h1.1a8.237,8.237,0,0,0,8.2-8.2v-46.6A16.688,16.688,0,0,0,305.681,142.01Z" fill="#825115"/>
        <path id="Path_125" data-name="Path 125" d="M320.081,208.21h-1.1a8.813,8.813,0,0,1-8.8-8.8v-18.8a7.853,7.853,0,0,0-7.9-7.9h-14.5v-29.2a7.721,7.721,0,0,1,.2-1.5,6.825,6.825,0,0,0-6.2,6.7v29.2h14.5a7.853,7.853,0,0,1,7.9,7.9v18.8a8.813,8.813,0,0,0,8.8,8.8h1.1a8.221,8.221,0,0,0,7.7-5.4A4.954,4.954,0,0,1,320.081,208.21Z" fill="#825115" opacity="0.24" style="isolation: isolate"/>
        <path id="Path_126" data-name="Path 126" d="M218.481,142.01h5.6a7.341,7.341,0,0,1,7.3,7.3v28.1a.645.645,0,0,1-.6.6h-13.4a8.386,8.386,0,0,0-8.4,8.4v17.7a9.389,9.389,0,0,1-9.4,9.4h0a8.813,8.813,0,0,1-8.8-8.8v-35A27.827,27.827,0,0,1,218.481,142.01Z" fill="#825115"/>
        <path id="Path_127" data-name="Path 127" d="M227.081,142.71v27.3a.645.645,0,0,1-.6.6h-13.4a8.386,8.386,0,0,0-8.4,8.4v17.7a9.389,9.389,0,0,1-9.4,9.4h0a9.331,9.331,0,0,1-4.4-1.2,8.818,8.818,0,0,0,8.7,8.6,9.389,9.389,0,0,0,9.4-9.4v-17.7a8.386,8.386,0,0,1,8.4-8.4h13.4a.645.645,0,0,0,.6-.6v-28.1A7.189,7.189,0,0,0,227.081,142.71Z" fill="#825115" opacity="0.24" style="isolation: isolate"/>
      </g>
      <path id="Path_128" data-name="Path 128" d="M287.681,129.81h-77.3a7.39,7.39,0,0,1-6-3,48.1,48.1,0,0,1-7.1-13.9,48.933,48.933,0,0,0-10.5,34,49.328,49.328,0,0,0,82.6,32.8h20.7a12.611,12.611,0,0,0,12.6-12.6v-22.6A15.117,15.117,0,0,0,287.681,129.81Z" fill="#a36f2b"/>
      <g id="Group_16" data-name="Group 16" opacity="0.49">
        <path id="Path_129" data-name="Path 129" d="M186.581,145.81c.5-11.7,4.4-25,10.6-32.9A49.654,49.654,0,0,0,186.581,145.81Z" fill="#a36f2b"/>
        <path id="Path_130" data-name="Path 130" d="M287.681,129.81h-77.3a7.39,7.39,0,0,1-6-3,48.1,48.1,0,0,1-7.1-13.9c1.6,5,1.4,12.3,7.1,18.8a7.991,7.991,0,0,0,6,3h77.3a14.937,14.937,0,0,1,14.9,14.9v-4.9A15,15,0,0,0,287.681,129.81Z" fill="#a36f2b"/>
      </g>
      <path id="Path_131" data-name="Path 131" d="M293.481,163.51h-15.3a49.328,49.328,0,0,1-82.6-32.8c-.4-5.9,1.6-17.5,1.5-17.7a48.933,48.933,0,0,0-10.5,34,49.328,49.328,0,0,0,82.6,32.8h20.7a12.611,12.611,0,0,0,12.6-12.6v-7.5A12.215,12.215,0,0,1,293.481,163.51Z" fill="#825115" opacity="0.24" style="isolation: isolate"/>
      <path id="Path_132" data-name="Path 132" d="M310.881,212.01a1.794,1.794,0,0,0-2.4-.8l-6.5,3.3v-4.5a1.792,1.792,0,0,0-1.8-1.8h-34.8a1.793,1.793,0,0,0-1.8,1.8v6a.909.909,0,0,0-.8-.4h-12.6a1.234,1.234,0,0,0-.8.4v-6a1.793,1.793,0,0,0-1.8-1.8h-34.8a1.793,1.793,0,0,0-1.8,1.8v4.5l-6.5-3.3a1.789,1.789,0,1,0-1.6,3.2l8.1,4.1v5.7a11.715,11.715,0,0,0,11.7,11.7h15a11.715,11.715,0,0,0,11.7-11.7v-5.5a.91.91,0,0,0,.8.4h12.6a1.234,1.234,0,0,0,.8-.4v5.5a11.715,11.715,0,0,0,11.7,11.7h15a11.715,11.715,0,0,0,11.7-11.7v-5.7l8.1-4.1A1.854,1.854,0,0,0,310.881,212.01Zm-65,12.2a8.066,8.066,0,0,1-8.1,8.1h-15a8.066,8.066,0,0,1-8.1-8.1v-12.4h31.2v12.4Zm52.6,0a8.066,8.066,0,0,1-8.1,8.1h-15a8.066,8.066,0,0,1-8.1-8.1v-12.4h31.2Z" fill="#edbb98"/>
      <path id="Path_133" data-name="Path 133" d="M310.881,209.81a1.794,1.794,0,0,0-2.4-.8l-6.5,3.3v-4.5a1.793,1.793,0,0,0-1.8-1.8h-34.8a1.793,1.793,0,0,0-1.8,1.8v6a.909.909,0,0,0-.8-.4h-12.6a1.234,1.234,0,0,0-.8.4v-6a1.793,1.793,0,0,0-1.8-1.8h-34.8a1.793,1.793,0,0,0-1.8,1.8v4.5l-6.5-3.3a1.789,1.789,0,0,0-1.6,3.2l8.1,4.1v5.7a11.715,11.715,0,0,0,11.7,11.7h15a11.715,11.715,0,0,0,11.7-11.7v-5.5a.909.909,0,0,0,.8.4h12.6a1.234,1.234,0,0,0,.8-.4v5.5a11.715,11.715,0,0,0,11.7,11.7h15a11.715,11.715,0,0,0,11.7-11.7v-5.7l8.1-4.1A1.794,1.794,0,0,0,310.881,209.81Zm-65,12.3a8.066,8.066,0,0,1-8.1,8.1h-15a8.066,8.066,0,0,1-8.1-8.1v-12.4h31.2v12.4Zm52.6,0a8.066,8.066,0,0,1-8.1,8.1h-15a8.066,8.066,0,0,1-8.1-8.1v-12.4h31.2Z" fill="#282f39"/>
      <g id="Group_21" data-name="Group 21">
        <g id="Group_18" data-name="Group 18">
          <path id="Path_134" data-name="Path 134" d="M290.381,203.91l-17.6-1.8a2.161,2.161,0,0,1-1.9-2.6l1-4.4a2.155,2.155,0,0,1,2.5-1.6l16.9,3.1a2.1,2.1,0,0,1,1.7,2.3l-.3,3.1A2.01,2.01,0,0,1,290.381,203.91Z" fill="#825115"/>
          <path id="Path_135" data-name="Path 135" d="M291.381,196.61l-1-.2v.2l-.3,3.1a2.117,2.117,0,0,1-2.3,1.9l-16.8-1.7a2.1,2.1,0,0,0,1.9,2.2l17.6,1.8a2.061,2.061,0,0,0,2.3-1.9l.3-3.1A2.1,2.1,0,0,0,291.381,196.61Z" fill="#825115" opacity="0.24" style="isolation: isolate"/>
          <g id="Group_17" data-name="Group 17">
            <path id="Path_136" data-name="Path 136" d="M289.981,219.81a6.5,6.5,0,1,1-6.5-6.5A6.487,6.487,0,0,1,289.981,219.81Z"/>
            <circle id="Ellipse_3" data-name="Ellipse 3" cx="2.9" cy="2.9" r="2.9" transform="translate(279.281 215.61)" fill="#fff"/>
          </g>
        </g>
        <g id="Group_20" data-name="Group 20">
          <path id="Path_137" data-name="Path 137" d="M222.681,203.91l17.6-1.8a2.161,2.161,0,0,0,1.9-2.6l-1-4.4a2.155,2.155,0,0,0-2.5-1.6l-16.9,3.1a2.1,2.1,0,0,0-1.7,2.3l.3,3.1A2.117,2.117,0,0,0,222.681,203.91Z" fill="#825115"/>
          <path id="Path_138" data-name="Path 138" d="M221.781,196.61l1-.2v.2l.3,3.1a2.117,2.117,0,0,0,2.3,1.9l16.8-1.7a2.1,2.1,0,0,1-1.9,2.2l-17.6,1.8a2.061,2.061,0,0,1-2.3-1.9l-.3-3.1A2.1,2.1,0,0,1,221.781,196.61Z" fill="#825115" opacity="0.24" style="isolation: isolate"/>
          <g id="Group_19" data-name="Group 19">
            <circle id="Ellipse_4" data-name="Ellipse 4" cx="6.5" cy="6.5" r="6.5" transform="translate(223.181 213.31)"/>
            <circle id="Ellipse_5" data-name="Ellipse 5" cx="2.9" cy="2.9" r="2.9" transform="translate(228.081 215.61)" fill="#fff"/>
          </g>
        </g>
      </g>
      <path id="Path_139" data-name="Path 139" d="M238.881,249.61c0,9.3,7.9,16.8,17.7,16.8s17.7-7.5,17.7-16.8Z" fill="#ba3842"/>
      <g id="Group_26" data-name="Group 26">
        <g id="Group_23" data-name="Group 23">
          <g id="Group_22" data-name="Group 22" clip-path="url(#clip-path)">
            <circle id="Ellipse_6" data-name="Ellipse 6" cx="18.9" cy="18.9" r="18.9" transform="translate(237.681 255.61)" fill="#f94b4b"/>
          </g>
        </g>
        <g id="Group_25" data-name="Group 25">
          <g id="Group_24" data-name="Group 24" clip-path="url(#clip-path)">
            <path id="Path_141" data-name="Path 141" d="M269.281,251.51h-25.4a1,1,0,0,1-1-1v-8.4a1,1,0,0,1,1-1h25.4a1,1,0,0,1,1,1v8.4A1,1,0,0,1,269.281,251.51Z" fill="#fff"/>
          </g>
        </g>
      </g>
      <g id="Group_29" data-name="Group 29">
        <g id="Group_27" data-name="Group 27">
          <path id="Path_143" data-name="Path 143" d="M317.481,213.21c-3.6-2.3-6.3-1.6-8.2.1v32.3a26.605,26.605,0,0,0,3,.2C321.381,245.71,326.281,218.91,317.481,213.21Z" fill="#ebb48b"/>
          <path id="Path_144" data-name="Path 144" d="M314.581,218.71c-2.3-1.5-4.1-1-5.3,0v20.8a11.482,11.482,0,0,0,1.9.1C317.081,239.71,320.281,222.41,314.581,218.71Z" fill="#ebb48b" opacity="0.4" style="isolation: isolate"/>
        </g>
        <g id="Group_28" data-name="Group 28">
          <path id="Path_145" data-name="Path 145" d="M203.881,213.31c-1.9-1.7-4.6-2.4-8.2-.1-8.8,5.7-3.9,32.5,5.3,32.5a26.606,26.606,0,0,0,3-.2v-32.2Z" fill="#ebb48b"/>
          <path id="Path_146" data-name="Path 146" d="M203.881,218.71c-1.3-1.1-3-1.5-5.3,0-5.7,3.7-2.5,21,3.4,21,.7,0,1.3-.1,1.9-.1v-20.9Z" fill="#ebb48b" opacity="0.4" style="isolation: isolate"/>
        </g>
      </g>
      <g id="Group_30" data-name="Group 30">
        <path id="Path_147" data-name="Path 147" d="M261.981,238.01a4.873,4.873,0,0,1-1,4.3,5.5,5.5,0,0,1-4.3,2,6.059,6.059,0,0,1-4.4-2,4.725,4.725,0,0,1-1-4.4,6.217,6.217,0,0,0,2.1,3.2,4.979,4.979,0,0,0,3.2,1.1,5.386,5.386,0,0,0,3.2-1.1A5.668,5.668,0,0,0,261.981,238.01Z" fill="#edbb98"/>
      </g>
    </g>
    <path id="Path_148" data-name="Path 148" d="M191.381,305.51a75.184,75.184,0,0,1,14.8-6.4l24.2-7.3a46.259,46.259,0,0,1,10.4-1.8l34.6-1.6a43.03,43.03,0,0,1,17,2.7l20.9,7.9a75.628,75.628,0,0,1,53.4,72.4v15.1a42.315,42.315,0,0,1-42.3,42.3h-129a42.315,42.315,0,0,1-42.3-42.3v-15.1A75.412,75.412,0,0,1,191.381,305.51Z" opacity="0.333" fill="url(#linear-gradient)" style="isolation: isolate"/>
  </g>
</svg>
