<svg xmlns="http://www.w3.org/2000/svg" width="26.877" height="27.291" viewBox="0 0 26.877 27.291">
  <g id="Group_425" data-name="Group 425" transform="translate(-131.525 -1598.392)">
    <g id="Group_421" data-name="Group 421">
      <g id="Group_415" data-name="Group 415">
        <path id="Path_1371" data-name="Path 1371" d="M132.577,1599.562v8.317h8.317v-8.317Zm7.148,7.155h-5.98v-5.98h5.98Z" fill="#fff"/>
        <rect id="Rectangle_179" data-name="Rectangle 179" width="3.505" height="3.505" transform="translate(134.983 1601.975)" fill="#fff"/>
      </g>
      <g id="Group_416" data-name="Group 416">
        <path id="Path_1372" data-name="Path 1372" d="M132.577,1616.314v8.317h8.317v-8.317Zm7.148,7.155h-5.98v-5.98h5.98Z" fill="#fff"/>
        <rect id="Rectangle_180" data-name="Rectangle 180" width="3.505" height="3.505" transform="translate(134.983 1618.727)" fill="#fff"/>
      </g>
      <g id="Group_417" data-name="Group 417">
        <path id="Path_1373" data-name="Path 1373" d="M149.181,1599.562v8.317H157.5v-8.317Zm7.148,7.155h-5.98v-5.98h5.98Z" fill="#fff"/>
        <rect id="Rectangle_181" data-name="Rectangle 181" width="3.505" height="3.505" transform="translate(151.586 1601.975)" fill="#fff"/>
      </g>
      <rect id="Rectangle_182" data-name="Rectangle 182" width="2.257" height="3.3" transform="translate(132.577 1609.219)" fill="#fff"/>
      <rect id="Rectangle_183" data-name="Rectangle 183" width="1.254" height="1.254" transform="translate(136.009 1612.651)" fill="#fff"/>
      <rect id="Rectangle_184" data-name="Rectangle 184" width="1.254" height="1.254" transform="translate(141.937 1610.143)" fill="#fff"/>
      <rect id="Rectangle_185" data-name="Rectangle 185" width="1.254" height="1.254" transform="translate(143.191 1611.397)" fill="#fff"/>
      <rect id="Rectangle_186" data-name="Rectangle 186" width="1.254" height="1.254" transform="translate(140.894 1612.651)" fill="#fff"/>
      <rect id="Rectangle_187" data-name="Rectangle 187" width="5.835" height="1.254" transform="translate(132.577 1609.1)" fill="#fff"/>
      <rect id="Rectangle_188" data-name="Rectangle 188" width="4.805" height="1.254" transform="translate(132.577 1613.905) rotate(-90)" fill="#fff"/>
      <rect id="Rectangle_189" data-name="Rectangle 189" width="3.647" height="1.254" transform="translate(137.247 1613.905)" fill="#fff"/>
      <rect id="Rectangle_190" data-name="Rectangle 190" width="2.406" height="1.254" transform="translate(138.488 1611.397)" fill="#fff"/>
      <rect id="Rectangle_191" data-name="Rectangle 191" width="3.5" height="1.254" transform="translate(139.691 1609.1)" fill="#fff"/>
      <rect id="Rectangle_192" data-name="Rectangle 192" width="1.254" height="1.254" transform="translate(145.705 1610.159) rotate(90)" fill="#fff"/>
      <g id="Group_418" data-name="Group 418">
        <rect id="Rectangle_193" data-name="Rectangle 193" width="2.257" height="3.3" transform="translate(147.883 1599.546) rotate(90)" fill="#fff"/>
        <rect id="Rectangle_194" data-name="Rectangle 194" width="1.254" height="1.254" transform="translate(144.451 1602.978) rotate(90)" fill="#fff"/>
        <rect id="Rectangle_195" data-name="Rectangle 195" width="1.254" height="1.254" transform="translate(146.959 1608.905) rotate(90)" fill="#fff"/>
        <rect id="Rectangle_196" data-name="Rectangle 196" width="1.254" height="1.254" transform="translate(144.451 1607.862) rotate(90)" fill="#fff"/>
        <rect id="Rectangle_197" data-name="Rectangle 197" width="5.835" height="1.254" transform="translate(148.002 1599.546) rotate(90)" fill="#fff"/>
        <rect id="Rectangle_198" data-name="Rectangle 198" width="4.805" height="1.254" transform="translate(143.197 1599.546)" fill="#fff"/>
        <rect id="Rectangle_199" data-name="Rectangle 199" width="3.647" height="1.254" transform="translate(143.197 1604.215) rotate(90)" fill="#fff"/>
        <rect id="Rectangle_200" data-name="Rectangle 200" width="2.406" height="1.254" transform="translate(145.705 1605.456) rotate(90)" fill="#fff"/>
        <rect id="Rectangle_201" data-name="Rectangle 201" width="3.5" height="1.254" transform="translate(148.002 1606.659) rotate(90)" fill="#fff"/>
      </g>
      <g id="Group_419" data-name="Group 419">
        <rect id="Rectangle_202" data-name="Rectangle 202" width="2.257" height="3.3" transform="translate(147.884 1614.017) rotate(90)" fill="#fff"/>
        <rect id="Rectangle_203" data-name="Rectangle 203" width="1.254" height="1.254" transform="translate(144.451 1617.449) rotate(90)" fill="#fff"/>
        <rect id="Rectangle_204" data-name="Rectangle 204" width="1.254" height="1.254" transform="translate(146.959 1623.377) rotate(90)" fill="#fff"/>
        <rect id="Rectangle_205" data-name="Rectangle 205" width="1.254" height="1.254" transform="translate(144.451 1622.334) rotate(90)" fill="#fff"/>
        <rect id="Rectangle_206" data-name="Rectangle 206" width="5.835" height="1.254" transform="translate(148.002 1614.017) rotate(90)" fill="#fff"/>
        <rect id="Rectangle_207" data-name="Rectangle 207" width="4.805" height="1.254" transform="translate(143.197 1614.017)" fill="#fff"/>
        <rect id="Rectangle_208" data-name="Rectangle 208" width="3.647" height="1.254" transform="translate(143.197 1618.687) rotate(90)" fill="#fff"/>
        <rect id="Rectangle_209" data-name="Rectangle 209" width="2.406" height="1.254" transform="translate(145.705 1619.928) rotate(90)" fill="#fff"/>
        <rect id="Rectangle_210" data-name="Rectangle 210" width="3.5" height="1.254" transform="translate(148.002 1621.131) rotate(90)" fill="#fff"/>
      </g>
      <g id="Group_420" data-name="Group 420">
        <rect id="Rectangle_211" data-name="Rectangle 211" width="2.257" height="3.3" transform="translate(157.398 1608.905) rotate(90)" fill="#fff"/>
        <rect id="Rectangle_212" data-name="Rectangle 212" width="1.254" height="1.254" transform="translate(153.966 1612.337) rotate(90)" fill="#fff"/>
        <rect id="Rectangle_213" data-name="Rectangle 213" width="1.254" height="1.254" transform="translate(151.474 1608.905) rotate(90)" fill="#fff"/>
        <rect id="Rectangle_214" data-name="Rectangle 214" width="1.254" height="1.254" transform="translate(149.256 1608.905) rotate(90)" fill="#fff"/>
        <rect id="Rectangle_215" data-name="Rectangle 215" width="1.254" height="1.254" transform="translate(156.474 1618.265) rotate(90)" fill="#fff"/>
        <rect id="Rectangle_216" data-name="Rectangle 216" width="2.346" height="1.254" transform="translate(150.368 1620.977) rotate(90)" fill="#fff"/>
        <rect id="Rectangle_217" data-name="Rectangle 217" width="1.254" height="4.082" transform="translate(152.712 1619.723) rotate(90)" fill="#fff"/>
        <rect id="Rectangle_218" data-name="Rectangle 218" width="1.254" height="1.254" transform="translate(156.425 1623.436) rotate(90)" fill="#fff"/>
        <rect id="Rectangle_219" data-name="Rectangle 219" width="1.254" height="1.254" transform="translate(152.712 1623.436) rotate(90)" fill="#fff"/>
        <rect id="Rectangle_220" data-name="Rectangle 220" width="2.459" height="2.459" transform="translate(155.17 1620.977) rotate(90)" fill="#fff"/>
        <rect id="Rectangle_221" data-name="Rectangle 221" width="5.835" height="1.254" transform="translate(157.517 1608.905) rotate(90)" fill="#fff"/>
        <rect id="Rectangle_222" data-name="Rectangle 222" width="4.805" height="1.254" transform="translate(152.712 1608.905)" fill="#fff"/>
        <rect id="Rectangle_223" data-name="Rectangle 223" width="3.647" height="1.254" transform="translate(152.712 1613.575) rotate(90)" fill="#fff"/>
        <rect id="Rectangle_224" data-name="Rectangle 224" width="2.406" height="1.254" transform="translate(155.22 1614.816) rotate(90)" fill="#fff"/>
        <rect id="Rectangle_225" data-name="Rectangle 225" width="3.5" height="1.254" transform="translate(157.517 1616.019) rotate(90)" fill="#fff"/>
      </g>
    </g>
    <g id="Group_424" data-name="Group 424">
      <g id="Group_422" data-name="Group 422">
        <path id="Path_1374" data-name="Path 1374" d="M131.525,1600.579v-2.067h2.307" fill="#fff"/>
        <path id="Path_1375" data-name="Path 1375" d="M156.335,1598.392H158.4v2.307" fill="#fff"/>
      </g>
      <g id="Group_423" data-name="Group 423">
        <path id="Path_1376" data-name="Path 1376" d="M158.4,1623.5v2.067H156.1" fill="#fff"/>
        <path id="Path_1377" data-name="Path 1377" d="M133.591,1625.683h-2.067v-2.307" fill="#fff"/>
      </g>
    </g>
  </g>
</svg>
