<svg xmlns="http://www.w3.org/2000/svg" width="34.512" height="36.335" viewBox="0 0 34.512 36.335">
  <g id="Group_373" data-name="Group 373" transform="translate(-57.278 -909.683)">
    <line id="Line_32" data-name="Line 32" x2="7.335" transform="translate(57.278 914.142)" fill="#fff" stroke="#fff" stroke-miterlimit="10" stroke-width="0.5"/>
    <line id="Line_33" data-name="Line 33" x2="13.829" transform="translate(77.961 914.142)" fill="#fff" stroke="#fff" stroke-miterlimit="10" stroke-width="0.5"/>
    <path id="Path_1149" data-name="Path 1149" d="M73.031,914.142a4.209,4.209,0,1,0-4.209,4.209A4.21,4.21,0,0,0,73.031,914.142Z" fill="#fff" stroke="#fff" stroke-miterlimit="10" stroke-width="0.5"/>
    <line id="Line_34" data-name="Line 34" x2="15.753" transform="translate(57.278 927.851)" fill="#fff" stroke="#fff" stroke-miterlimit="10" stroke-width="0.5"/>
    <line id="Line_35" data-name="Line 35" x2="5.652" transform="translate(86.138 927.851)" fill="#fff" stroke="#fff" stroke-miterlimit="10" stroke-width="0.5"/>
    <path id="Path_1150" data-name="Path 1150" d="M81.448,927.851a4.208,4.208,0,1,0-4.209,4.209A4.208,4.208,0,0,0,81.448,927.851Z" fill="#fff" stroke="#fff" stroke-miterlimit="10" stroke-width="0.5"/>
    <line id="Line_36" data-name="Line 36" x2="5.231" transform="translate(57.278 941.559)" fill="#fff" stroke="#fff" stroke-miterlimit="10" stroke-width="0.5"/>
    <line id="Line_37" data-name="Line 37" x2="15.753" transform="translate(76.037 941.559)" fill="#fff" stroke="#fff" stroke-miterlimit="10" stroke-width="0.5"/>
    <path id="Path_1151" data-name="Path 1151" d="M70.927,941.559a4.209,4.209,0,1,0-4.209,4.209A4.21,4.21,0,0,0,70.927,941.559Z" fill="#fff" stroke="#fff" stroke-miterlimit="10" stroke-width="0.5"/>
  </g>
</svg>
