<svg xmlns="http://www.w3.org/2000/svg" width="259.233" height="26.574" viewBox="0 0 259.233 26.574">
  <g id="Group_547" data-name="Group 547" transform="translate(-460.129 -120.403)">
    <path id="Path_1653" data-name="Path 1653" d="M471.7,120.4a1.964,1.964,0,0,1,1.613.746,2.862,2.862,0,0,1,.722,1.352,3.426,3.426,0,0,1,.062.852v20.407a2.75,2.75,0,0,1-.654,1.9,2.214,2.214,0,0,1-1.8.9,2.516,2.516,0,0,1-1.781-.828,3.061,3.061,0,0,1-.688-1.973V126.007H462.6a2.247,2.247,0,0,1-1.68-.746,2.867,2.867,0,0,1-.789-2.055,3.092,3.092,0,0,1,.727-2.017,2.34,2.34,0,0,1,1.742-.784h9.1Zm8.972,0h.033a2.188,2.188,0,0,1,1.574.674,2.622,2.622,0,0,1,.857,2.088v.077a2.772,2.772,0,0,1-.823,2.06,2.274,2.274,0,0,1-1.641.7H474.1s-2.406-5.338-2.7-5.6Z" fill="#fff"/>
    <path id="Path_1654" data-name="Path 1654" d="M503.579,120.4a2.134,2.134,0,0,1,1.8.934,2.8,2.8,0,0,1,.626,1.867v14.348a3.1,3.1,0,0,0-1.184-.973,2.5,2.5,0,0,0-1.28-.3H490.694v7.47a2.772,2.772,0,0,1-.654,1.91,2.207,2.207,0,0,1-1.81.891,2.5,2.5,0,0,1-1.776-.814,3.091,3.091,0,0,1-.688-1.987V129.41a4.918,4.918,0,0,0,.852.785,3.087,3.087,0,0,0,1.482.486h12.981v-7.513a2.881,2.881,0,0,1,.592-1.791,2.179,2.179,0,0,1,1.838-.972Zm-15.315,0a2.136,2.136,0,0,1,1.8.934,2.8,2.8,0,0,1,.625,1.867v8.052c0,.669-4.894-.909-4.928-1.655v-6.435a2.881,2.881,0,0,1,.592-1.791,2.181,2.181,0,0,1,1.839-.972Zm17.745,19.425v3.923a2.752,2.752,0,0,1-.659,1.91,2.192,2.192,0,0,1-1.8.891,2.4,2.4,0,0,1-1.776-.814,3.064,3.064,0,0,1-.688-1.987v-7.831c0-.789,4.928-14.121,4.928,3.908" fill="#fff"/>
    <path id="Path_1655" data-name="Path 1655" d="M520.175,131.014l-6.907,14.049a2.691,2.691,0,0,1-.914,1.083,2.256,2.256,0,0,1-3.061-.443,2.98,2.98,0,0,1-.688-1.949,3.069,3.069,0,0,1,.3-1.343l7.884-15.989c.462-.9,9.322-7.9,3.388,4.592m1.8-10.459a1.757,1.757,0,0,1,.693.409,2.558,2.558,0,0,1,.722.973l10.054,20.474a2.684,2.684,0,0,1,.332,1.343,2.912,2.912,0,0,1-.76,2.016,2.178,2.178,0,0,1-1.709.785,2.305,2.305,0,0,1-1.28-.409,3,3,0,0,1-.919-1.083l-8.38-16.99a3.612,3.612,0,0,0-1.217-1.4.077.077,0,0,0-.068-.067,2.924,2.924,0,0,0-1.213-.414H517.9a2.787,2.787,0,0,0-1.116.226l2.17-4.447a2.657,2.657,0,0,1,.852-1.088,2.2,2.2,0,0,1,1.381-.481,1.894,1.894,0,0,1,.79.149" fill="#fff"/>
    <path id="Path_1656" data-name="Path 1656" d="M536.869,120.4a2.147,2.147,0,0,1,1.574.635,2.643,2.643,0,0,1,.857,1.757l1.511,11.618a1.973,1.973,0,0,1,.034.337c1.559,11.806-3.72,12.061-4.9.486l-1.511-11.618v-.039c0-.149-.034-.26-.034-.375a3.3,3.3,0,0,1,.366-1.492,2.255,2.255,0,0,1,1.709-1.271h.062a1.1,1.1,0,0,1,.332-.038m10.218,10.011a1.746,1.746,0,0,1,1.117.414,2.183,2.183,0,0,1,.626.558,3.14,3.14,0,0,1,.462.6l2.757,3.811q.693.954,1.083,1.459a7.161,7.161,0,0,0,1.088.938,4.2,4.2,0,0,0,.886.294c.2,0,.361.038.495.038a3.482,3.482,0,0,0,.852-.144,2.956,2.956,0,0,0,1.285-.756l-.823,6.243v.077a3.692,3.692,0,0,1-.394,1.155,2.937,2.937,0,0,1-1.151,1.049,2.269,2.269,0,0,1-.89.188h-.356a2.833,2.833,0,0,1-1.483-.862c-.067-.067-.231-.3-.491-.635l-5.193-7.248L541.6,145.1l-.328.375a2.463,2.463,0,0,1-1.285.823c-.13,0-.26.039-.457.039h-.1a3.345,3.345,0,0,1-.823-.149,2.826,2.826,0,0,1-.655-.453,3.224,3.224,0,0,1-.688-.967c-.067-.226-.1-.414-.168-.636a.345.345,0,0,0-.029-.187v-.077l-.823-6.387a3.238,3.238,0,0,0,.919.635,3.378,3.378,0,0,0,1.184.265c.2,0,.361-.038.491-.038.265-.077.5-.15.693-.227a4.352,4.352,0,0,0,1.213-.9,12.31,12.31,0,0,0,.789-.972c.332-.448.558-.784.756-1.006l2.4-3.364c.2-.26.361-.448.424-.52a1.819,1.819,0,0,1,.462-.447,2.016,2.016,0,0,1,1.083-.453.723.723,0,0,1,.265-.038h.163Zm10.353-9.973h.067a2.212,2.212,0,0,1,1.675,1.271,2.943,2.943,0,0,1,.4,1.492,1.533,1.533,0,0,1-.034.375v.039l-1.511,11.657v.077c-1.194,12.244-6.435,12.436-4.929-.453a2.417,2.417,0,0,0,.029-.26l1.545-11.844a2.876,2.876,0,0,1,.857-1.718,2.207,2.207,0,0,1,1.579-.674.884.884,0,0,1,.327.038" fill="#fff"/>
    <path id="Path_1657" data-name="Path 1657" d="M591.42,120.63a2.28,2.28,0,0,1,.852.712l10.814,14.53a4.3,4.3,0,0,0,.953.943,3.6,3.6,0,0,0,1.709.477,3.322,3.322,0,0,0,1.478-.376,3.819,3.819,0,0,0,.991-.779v7.619a2.915,2.915,0,0,1-.626,1.877,2.351,2.351,0,0,1-1.843.924,2.28,2.28,0,0,1-1.935-1.083l-10.752-14.386a.948.948,0,0,0-.163-.221,2.472,2.472,0,0,0-.982-.823,2.9,2.9,0,0,0-1.449-.376H590.4a2.977,2.977,0,0,0-1.478.376,2.6,2.6,0,0,0-.953.823V123.2a2.839,2.839,0,0,1,.756-2.016,2.279,2.279,0,0,1,1.708-.785,2.15,2.15,0,0,1,.987.227m1.478,8.86v14.266a2.856,2.856,0,0,1-.694,1.939,2.181,2.181,0,0,1-1.771.862,2.327,2.327,0,0,1-1.968-1.117,3.1,3.1,0,0,1-.5-1.684V129.784c.034-.717,4.929-1.3,4.929-.294m14.429-8.413a2.691,2.691,0,0,1,.89,2.127v10.834c0,19.165-4.933,12.519-4.933,0V123.2a2.838,2.838,0,0,1,.755-2.016,2.221,2.221,0,0,1,3.288-.111" fill="#fff"/>
    <path id="Path_1658" data-name="Path 1658" d="M630.327,121.227a2.761,2.761,0,0,1,.727,1.978,2.719,2.719,0,0,1-.164,1.011,4.531,4.531,0,0,1-.659,1.083l-6.474,8.74c-.062.077-.163.226-.293.375s-.169.265-.231.337c-.231.3-.429.563-.592.785a3.6,3.6,0,0,1-.693.524,2.5,2.5,0,0,1-1.021.26,2.305,2.305,0,0,1-1.607-.712c-.1-.111-.294-.332-.558-.669l-7.128-9.6a11.848,11.848,0,0,1-.66-1.083,3.953,3.953,0,0,1-.163-1.049,2.911,2.911,0,0,1,.722-1.978,2.256,2.256,0,0,1,1.737-.823,2.073,2.073,0,0,1,1.285.409,3.439,3.439,0,0,1,.953,1.088l5.419,7.282,5.425-7.321a4.9,4.9,0,0,1,.953-1.088,2.32,2.32,0,0,1,1.285-.37,2.155,2.155,0,0,1,1.737.823M623.4,133.48v10.276a2.892,2.892,0,0,1-.659,1.906,2.2,2.2,0,0,1-1.81.9,2.306,2.306,0,0,1-1.771-.861,2.858,2.858,0,0,1-.688-1.94V131.377c.818.857,4.1,2.965,4.928,2.1" fill="#fff"/>
    <path id="Path_1659" data-name="Path 1659" d="M571.9,131.014l-6.907,14.049a2.73,2.73,0,0,1-.914,1.083,2.256,2.256,0,0,1-3.061-.443,2.979,2.979,0,0,1-.688-1.949,3.066,3.066,0,0,1,.293-1.343l7.888-15.989c.463-.9,9.323-7.9,3.389,4.592m1.8-10.459a1.764,1.764,0,0,1,.693.409,2.6,2.6,0,0,1,.717.973l10.059,20.474a2.68,2.68,0,0,1,.327,1.343,2.927,2.927,0,0,1-.756,2.016,2.174,2.174,0,0,1-1.708.785,2.305,2.305,0,0,1-1.28-.409,3.014,3.014,0,0,1-.924-1.083l-8.375-16.99a3.6,3.6,0,0,0-1.218-1.4.076.076,0,0,0-.067-.067,2.948,2.948,0,0,0-1.213-.414h-.332a2.775,2.775,0,0,0-1.117.226l2.171-4.447a2.649,2.649,0,0,1,.852-1.088,2.194,2.194,0,0,1,1.381-.481,1.894,1.894,0,0,1,.79.149" fill="#fff"/>
    <path id="Path_1660" data-name="Path 1660" d="M655.024,120.4a2.346,2.346,0,0,1,1.834.755,2.934,2.934,0,0,1,.823,1.367,3.177,3.177,0,0,1,.072.876v20.72a2.836,2.836,0,0,1-2.806,2.854,3.02,3.02,0,0,1-2.017-.842,2.883,2.883,0,0,1-.784-2.012V126.1h-7.475a2.689,2.689,0,0,1-1.91-.76,2.759,2.759,0,0,1-.9-2.089,2.96,2.96,0,0,1,.819-2.045,2.815,2.815,0,0,1,1.987-.8h10.353Zm10.208,0h.039a2.628,2.628,0,0,1,1.79.688,2.533,2.533,0,0,1,.972,2.118v.081a2.661,2.661,0,0,1-.933,2.084,2.732,2.732,0,0,1-1.868.722h-8.923s-2.353-5.429-2.686-5.693Z" fill="#fff"/>
    <path id="Path_1661" data-name="Path 1661" d="M676.7,127.794l-9.717,17.659a2.833,2.833,0,0,1-1.039,1.1,2.866,2.866,0,0,1-1.464.419,2.761,2.761,0,0,1-2.016-.867,2.845,2.845,0,0,1-.785-1.983,2.883,2.883,0,0,1,.332-1.366l9.645-17.462c.525-.909,5.232,2.128,5.044,2.5m.193-7.239a2.054,2.054,0,0,1,.784.419,2.623,2.623,0,0,1,.823.987l11.441,20.792a2.493,2.493,0,0,1,.375,1.366,2.811,2.811,0,0,1-.861,2.051,2.639,2.639,0,0,1-1.945.8,2.843,2.843,0,0,1-1.458-.419,3.159,3.159,0,0,1-1.045-1.1l-9.534-17.269a2.756,2.756,0,0,0-.635-.838,3.012,3.012,0,0,0-.746-.568.084.084,0,0,0-.077-.077,3.667,3.667,0,0,0-1.386-.418h-.371a3.726,3.726,0,0,0-1.28.231L673.452,122a2.772,2.772,0,0,1,.972-1.1,2.665,2.665,0,0,1,1.569-.491,2.4,2.4,0,0,1,.9.149" fill="#fff"/>
    <path id="Path_1662" data-name="Path 1662" d="M715.627,124.564c.554,3.9-3.326,3.2-3.739,2.96a7.837,7.837,0,0,0-5.574-1.429,7.658,7.658,0,0,0-5.27,2.238,7.289,7.289,0,0,0-2.171,5.361,7.532,7.532,0,0,0,2.205,5.381,7.356,7.356,0,0,0,10.882-.419c.115-.149.187-.226.187-.264a2.641,2.641,0,0,1,1.5-.876,1.784,1.784,0,0,1,.6-.073,2.63,2.63,0,0,1,1.646.568,2.528,2.528,0,0,1,1.044,1.444,2.165,2.165,0,0,1,.154.871,2.769,2.769,0,0,1-.49,1.565.525.525,0,0,0-.15.182,13.186,13.186,0,0,1-4.485,3.6,12.5,12.5,0,0,1-5.646,1.29,12.915,12.915,0,0,1-6.579-1.785,13.477,13.477,0,0,1-4.707-18.174,12.944,12.944,0,0,1,4.745-4.823,12.415,12.415,0,0,1,6.541-1.78c2.546,0,7.956,1.858,9.313,4.158m2.989,7.224a2.687,2.687,0,0,1,.746,1.906v.145c0,2.122-1.535,5.684-2.508,7.58-.077-.568-4.1-3.36-4.4-3.316l.741-1.5h-5.116a2.707,2.707,0,0,1-2.286-1.174,2.974,2.974,0,0,1-.52-1.67,2.793,2.793,0,0,1,.6-1.743,2.618,2.618,0,0,1,2.209-1.107h8.48a2.657,2.657,0,0,1,2.06.876" fill="#fff"/>
  </g>
</svg>
