<svg xmlns="http://www.w3.org/2000/svg" width="36.104" height="25.321" viewBox="0 0 36.104 25.321">
  <g id="Group_443" data-name="Group 443" transform="translate(-2916.499 -400.023)">
    <path id="Path_1399" data-name="Path 1399" d="M2951.639,411.36a5.9,5.9,0,0,0-4.806-2.377,6.086,6.086,0,0,0-3.182.888l-7.022,4.293-11.178-6.836a6.109,6.109,0,0,0-3.183-.888,5.9,5.9,0,0,0-4.805,2.377,4.939,4.939,0,0,0-.848,3.992,5.28,5.28,0,0,0,2.463,3.37l12.841,7.854a9.022,9.022,0,0,0,4.707,1.311h0a9.023,9.023,0,0,0,4.708-1.311l6.174-3.765a.714.714,0,0,0,.093-.066l2.422-1.481c.033-.02.065-.042.1-.063.064-.036.126-.072.189-.11a.772.772,0,0,0,.143-.118,5.211,5.211,0,0,0,2.033-3.08,4.936,4.936,0,0,0-.847-3.99m-15.461,4.241.037.023,4.782,2.924a8.871,8.871,0,0,0,4.393,1.293l-.165.1a.563.563,0,0,0-.055.04l-4.691,2.86a7.452,7.452,0,0,1-7.7,0l-12.842-7.855a3.854,3.854,0,0,1-1.8-2.463,3.609,3.609,0,0,1,.621-2.919,4.312,4.312,0,0,1,3.514-1.739,4.47,4.47,0,0,1,2.327.651Zm13.138,1.835a7.35,7.35,0,0,1-7.463-.078l-3.822-2.337,6.475-3.96a4.456,4.456,0,0,1,2.327-.651,4.317,4.317,0,0,1,3.516,1.739,3.612,3.612,0,0,1,.619,2.917,3.838,3.838,0,0,1-1.652,2.37" fill="#fff"/>
    <path id="Path_1400" data-name="Path 1400" d="M2932.509,406.689a.767.767,0,0,0,.739.5.838.838,0,0,0,.232-.032.707.707,0,0,0,.508-.894l-1.125-3.321a.79.79,0,0,0-.97-.469.706.706,0,0,0-.509.894Z" fill="#fff"/>
    <path id="Path_1401" data-name="Path 1401" d="M2936.627,407.19a.748.748,0,0,0,.775-.714v-5.739a.777.777,0,0,0-1.549,0v5.739a.748.748,0,0,0,.774.714" fill="#fff"/>
    <path id="Path_1402" data-name="Path 1402" d="M2939.775,407.157a.818.818,0,0,0,.231.032.765.765,0,0,0,.739-.5l1.125-3.322a.707.707,0,0,0-.508-.894.79.79,0,0,0-.97.47l-1.125,3.32a.706.706,0,0,0,.508.894" fill="#fff"/>
  </g>
</svg>
