<svg xmlns="http://www.w3.org/2000/svg" width="34.654" height="31.517" viewBox="0 0 34.654 31.517">
  <g id="Group_444" data-name="Group 444" transform="translate(-2922.376 -465.667)">
    <path id="Path_1403" data-name="Path 1403" d="M2954.371,469.03l-26.976,1.279c-1.8,0-3.3-.035-3.713,1.637.415,1.671,1.913,1.635,3.713,1.635h26.976C2956.173,473.581,2956.173,469.03,2954.371,469.03Z" fill="#fff"/>
    <path id="Path_1404" data-name="Path 1404" d="M2945.268,465.667l-18.694,1.477c-1.249.039-2.29.047-2.541,1.217.324,1.151,1.363,1.093,2.613,1.054l18.722-.589C2946.618,468.787,2946.519,465.628,2945.268,465.667Z" fill="#fff"/>
    <path id="Path_1405" data-name="Path 1405" d="M2957.03,478.657a3.835,3.835,0,0,0-3.777-3.832l-.062-.063h-26.976a3.831,3.831,0,0,1-3.714-2.916,3.752,3.752,0,0,0-.125.923V476.5h1.011v.64h-1.011v16.207a3.839,3.839,0,0,0,3.839,3.839h26.976a3.839,3.839,0,0,0,3.839-3.839v-1.619H2956a4.139,4.139,0,0,1-.192.9l-.6-.211a3.387,3.387,0,0,0,.157-.693h-2.811a5.633,5.633,0,0,1,0-11.265h4.478Zm-2.39,14.79.5.4a4.163,4.163,0,0,1-1.032.928l-.343-.539A3.521,3.521,0,0,0,2954.64,493.447Zm-3.166,1.332h.409a3.481,3.481,0,0,0,.8-.092l.146.624a4.2,4.2,0,0,1-.944.107h-.409Zm-2.575,0h1.286v.639H2948.9Zm-24.478.639h-1.287v-.639h1.287Zm.253-18.92h1.288v.64h-1.288Zm2.324,18.92h-1.288v-.639H2927Zm.253-18.92h1.288v.64h-1.288Zm2.323,18.92h-1.287v-.639h1.287Zm.253-18.92h1.288v.64h-1.288Zm2.324,18.92h-1.288v-.639h1.288Zm.253-18.92h1.288v.64H2932.4Zm2.322,18.92h-1.288v-.639h1.288Zm.254-18.92h1.289v.64h-1.289Zm2.324,18.92h-1.289v-.639h1.289Zm.253-18.92h1.289v.64h-1.289Zm2.323,18.92h-1.289v-.639h1.289Zm.253-18.92h1.288v.64h-1.288Zm2.324,18.92h-1.289v-.639h1.289Zm.252-18.92H2944v.64h-1.289Zm2.324,18.92h-1.287v-.639h1.287Zm.253-18.92h1.288v.64h-1.288Zm2.324,18.281v.639h-1.288v-.639Zm1.541-17.641h-1.289v-.64h1.289Zm2.576,0h-1.287v-.64h1.287Zm2.229.676a3.474,3.474,0,0,0-1.05-.525l.185-.612a4.1,4.1,0,0,1,1.243.621Zm1.32,1.9a3.463,3.463,0,0,0-.5-1.063l.525-.365a4.141,4.141,0,0,1,.59,1.259Z" fill="#fff"/>
    <path id="Path_1406" data-name="Path 1406" d="M2948.144,486.093a4.432,4.432,0,0,0,4.408,4.408h4.478v-8.816h-4.478A4.387,4.387,0,0,0,2948.144,486.093Zm3.18-2.756.267.581a2.433,2.433,0,0,0-.882.691l-.5-.4A3.079,3.079,0,0,1,2951.324,483.337Zm-1.659,3.582a3.046,3.046,0,0,1-.058-1.415l.628.124a2.395,2.395,0,0,0,.046,1.117Zm1.885,2.023a3.059,3.059,0,0,1-1.183-.78l.468-.438a2.409,2.409,0,0,0,.932.617Zm2.311.181h-1.281v-.639h1.281Zm1.416-6.06h1.28v.64h-1.28Zm-.128,5.421h1.279v.639h-1.279Zm-2.768-.746a1.645,1.645,0,1,1,1.644-1.645A1.644,1.644,0,0,1,2952.381,487.738Zm.329-4.675h1.281v.64h-1.281Z" fill="#fff"/>
  </g>
</svg>
