<svg xmlns="http://www.w3.org/2000/svg" xmlns:xlink="http://www.w3.org/1999/xlink" width="94.281" height="96.919" viewBox="0 0 94.281 96.919">
  <defs>
    <linearGradient id="linear-gradient" x1="0.001" y1="0.228" x2="0.952" y2="0.762" gradientUnits="objectBoundingBox">
      <stop offset="0" stop-color="#68686c" stop-opacity="0"/>
      <stop offset="1" stop-color="#fff" stop-opacity="0.8"/>
    </linearGradient>
  </defs>
  <g id="Group_74" data-name="Group 74" transform="translate(-2348.786 -1192.843)">
    <g id="Group_67" data-name="Group 67">
      <g id="Group_66" data-name="Group 66">
        <g id="Group_65" data-name="Group 65">
          <circle id="Ellipse_13" data-name="Ellipse 13" cx="47.141" cy="47.141" r="47.141" transform="translate(2348.786 1195.48)" fill="#83aa87"/>
        </g>
        <path id="Path_293" data-name="Path 293" d="M2404.049,1234.74a34.078,34.078,0,0,0,30.189-18.272,43.736,43.736,0,0,0-64.054-11.968A34.091,34.091,0,0,0,2404.049,1234.74Z" opacity="0.52" fill="url(#linear-gradient)"/>
      </g>
    </g>
    <g id="Group_68" data-name="Group 68">
      <path id="Path_294" data-name="Path 294" d="M2418.441,1221.095a7.978,7.978,0,0,0-11.08-2.24l-9.738,6.46-15.5-10.289a7.994,7.994,0,1,0-8.838,13.322l17.808,11.822a11.779,11.779,0,0,0,6.529,1.973h0a11.777,11.777,0,0,0,6.529-1.973l8.563-5.666a1.165,1.165,0,0,0,.129-.1l3.358-2.228c.046-.031.091-.063.136-.1.087-.054.174-.108.26-.165a1.021,1.021,0,0,0,.2-.177,7.992,7.992,0,0,0,1.645-10.643M2397,1227.479l.052.035,6.63,4.4a11.6,11.6,0,0,0,6.094,1.946l-.23.153c-.027.018-.05.041-.075.061l-6.506,4.305a9.649,9.649,0,0,1-10.685,0l-17.809-11.823a5.845,5.845,0,1,1,6.465-9.74Zm18.221,2.761a9.514,9.514,0,0,1-10.351-.116l-5.3-3.519,8.983-5.96a5.844,5.844,0,0,1,6.67,9.595" fill="#fff"/>
      <path id="Path_295" data-name="Path 295" d="M2391.909,1214.064a1.07,1.07,0,0,0,1.025.754,1.054,1.054,0,0,0,.32-.049,1.075,1.075,0,0,0,.706-1.345l-1.56-5a1.074,1.074,0,1,0-2.051.64Z" fill="#fff"/>
      <path id="Path_296" data-name="Path 296" d="M2397.621,1214.818a1.076,1.076,0,0,0,1.074-1.074v-8.638a1.075,1.075,0,0,0-2.149,0v8.638a1.076,1.076,0,0,0,1.075,1.074" fill="#fff"/>
      <path id="Path_297" data-name="Path 297" d="M2401.987,1214.769a1.054,1.054,0,0,0,.32.049,1.07,1.07,0,0,0,1.025-.754l1.56-5a1.074,1.074,0,1,0-2.051-.64l-1.56,5a1.075,1.075,0,0,0,.706,1.345" fill="#fff"/>
    </g>
    <g id="Group_70" data-name="Group 70">
      <g id="Group_69" data-name="Group 69">
        <path id="Path_298" data-name="Path 298" d="M2363.021,1248.965a.889.889,0,0,1,.735.342,1.32,1.32,0,0,1,.33.614,1.512,1.512,0,0,1,.03.392v9.313a1.261,1.261,0,0,1-.3.87,1,1,0,0,1-.825.41,1.142,1.142,0,0,1-.81-.376,1.393,1.393,0,0,1-.315-.9v-8.1h-3a1.021,1.021,0,0,1-.765-.341,1.311,1.311,0,0,1-.36-.938,1.416,1.416,0,0,1,.33-.921,1.065,1.065,0,0,1,.795-.359h4.156Zm4.1,0h.015a1.006,1.006,0,0,1,.72.307,1.21,1.21,0,0,1,.39.956v.034a1.263,1.263,0,0,1-.375.938,1.035,1.035,0,0,1-.75.324h-3s-1.1-2.439-1.234-2.559Z" fill="#fff"/>
        <path id="Path_299" data-name="Path 299" d="M2377.575,1248.965a.978.978,0,0,1,.825.427,1.281,1.281,0,0,1,.285.853v6.55a1.416,1.416,0,0,0-.54-.444,1.153,1.153,0,0,0-.585-.136h-5.867v3.411a1.261,1.261,0,0,1-.3.87,1,1,0,0,1-.825.41,1.142,1.142,0,0,1-.81-.376,1.393,1.393,0,0,1-.315-.9v-6.55a2.033,2.033,0,0,0,.39.358,1.386,1.386,0,0,0,.675.222h5.926v-3.428a1.319,1.319,0,0,1,.271-.819,1,1,0,0,1,.84-.444Zm-6.992,0a.978.978,0,0,1,.825.427,1.281,1.281,0,0,1,.285.853v3.676c0,.307-2.235-.415-2.25-.757v-2.936a1.325,1.325,0,0,1,.27-.819,1,1,0,0,1,.84-.444Zm8.1,8.87v1.791a1.261,1.261,0,0,1-.3.87,1,1,0,0,1-.825.41,1.092,1.092,0,0,1-.81-.376,1.388,1.388,0,0,1-.316-.9v-3.576C2376.434,1255.691,2378.685,1249.6,2378.685,1257.835Z" fill="#fff"/>
        <path id="Path_300" data-name="Path 300" d="M2385.152,1253.81l-3.151,6.413a1.263,1.263,0,0,1-.42.495,1.022,1.022,0,0,1-1.4-.205,1.347,1.347,0,0,1-.315-.887,1.407,1.407,0,0,1,.135-.614l3.6-7.3C2383.816,1251.3,2387.862,1248.106,2385.152,1253.81Zm.825-4.776a.768.768,0,0,1,.315.187,1.143,1.143,0,0,1,.33.444l4.591,9.347a1.231,1.231,0,0,1,.15.614,1.343,1.343,0,0,1-.345.921,1.012,1.012,0,0,1-.78.359,1.05,1.05,0,0,1-.585-.188,1.4,1.4,0,0,1-.42-.495l-3.826-7.761a1.228,1.228,0,0,0-.255-.375,1.155,1.155,0,0,0-.3-.256.035.035,0,0,0-.03-.034,1.365,1.365,0,0,0-.556-.188h-.15a1.29,1.29,0,0,0-.51.1l.99-2.03a1.21,1.21,0,0,1,.391-.495.992.992,0,0,1,.63-.222A.8.8,0,0,1,2385.977,1249.034Z" fill="#fff"/>
        <path id="Path_301" data-name="Path 301" d="M2392.773,1248.965a.99.99,0,0,1,.721.29,1.208,1.208,0,0,1,.39.8l.69,5.305a.994.994,0,0,1,.015.153c.714,5.391-1.7,5.505-2.236.222l-.69-5.305v-.017c0-.068-.015-.119-.015-.17a1.516,1.516,0,0,1,.165-.683,1.038,1.038,0,0,1,.78-.58h.03A.5.5,0,0,1,2392.773,1248.965Zm4.667,4.572a.8.8,0,0,1,.51.187.983.983,0,0,1,.285.256,1.241,1.241,0,0,1,.21.273l1.26,1.74q.315.435.495.665a3.06,3.06,0,0,0,.5.427,1.89,1.89,0,0,0,.405.136c.09,0,.165.017.225.017a1.459,1.459,0,0,0,.39-.068,1.314,1.314,0,0,0,.585-.341l-.375,2.848v.035a1.682,1.682,0,0,1-.18.528,1.352,1.352,0,0,1-.525.478,1.026,1.026,0,0,1-.405.085h-.165a1.272,1.272,0,0,1-.676-.392c-.03-.034-.1-.137-.225-.29l-2.37-3.309-2.446,3.428-.15.171a1.1,1.1,0,0,1-.585.375c-.06,0-.12.017-.21.017h-.045a1.449,1.449,0,0,1-.375-.068,1.185,1.185,0,0,1-.3-.2,1.473,1.473,0,0,1-.316-.443c-.03-.1-.045-.188-.075-.29a.142.142,0,0,0-.015-.085v-.035l-.375-2.916a1.5,1.5,0,0,0,.42.29,1.558,1.558,0,0,0,.541.119c.09,0,.165-.017.225-.017q.18-.051.315-.1a1.943,1.943,0,0,0,.555-.41c.09-.1.21-.239.36-.443s.255-.358.345-.461l1.095-1.535c.09-.119.165-.205.2-.239a.828.828,0,0,1,.21-.2.923.923,0,0,1,.5-.205.331.331,0,0,1,.12-.017h.075Zm4.726-4.555h.03a1.016,1.016,0,0,1,.765.58,1.356,1.356,0,0,1,.18.683.714.714,0,0,1-.015.17v.017l-.69,5.322v.034c-.544,5.592-2.937,5.68-2.251-.2,0-.034.015-.086.015-.12l.706-5.407a1.313,1.313,0,0,1,.39-.785,1.007,1.007,0,0,1,.72-.307A.408.408,0,0,1,2402.166,1248.982Z" fill="#fff"/>
        <path id="Path_302" data-name="Path 302" d="M2417.68,1249.068a1.062,1.062,0,0,1,.39.324l4.936,6.635a1.832,1.832,0,0,0,.435.427,1.6,1.6,0,0,0,.78.221,1.54,1.54,0,0,0,.675-.17,1.743,1.743,0,0,0,.451-.358v3.479a1.312,1.312,0,0,1-.285.853,1.075,1.075,0,0,1-.841.427,1.048,1.048,0,0,1-.885-.495l-4.906-6.567a.467.467,0,0,0-.075-.1,1.131,1.131,0,0,0-.45-.375,1.285,1.285,0,0,0-.661-.17h-.03a1.339,1.339,0,0,0-.675.17,1.2,1.2,0,0,0-.435.375v-3.5a1.292,1.292,0,0,1,.345-.921,1.035,1.035,0,0,1,.78-.359A.975.975,0,0,1,2417.68,1249.068Zm.675,4.045v6.513a1.316,1.316,0,0,1-.315.887,1.009,1.009,0,0,1-.811.393,1.069,1.069,0,0,1-.9-.512,1.418,1.418,0,0,1-.225-.768v-6.381C2416.119,1252.921,2418.355,1252.652,2418.355,1253.113Zm6.586-3.841a1.23,1.23,0,0,1,.406.973v4.946c0,8.747-2.251,5.715-2.251,0v-4.946a1.292,1.292,0,0,1,.345-.921,1.013,1.013,0,0,1,1.5-.052Z" fill="#fff"/>
        <path id="Path_303" data-name="Path 303" d="M2435.444,1249.341a1.27,1.27,0,0,1,.33.9,1.232,1.232,0,0,1-.075.46,1.984,1.984,0,0,1-.3.495l-2.956,3.991c-.03.034-.075.1-.135.171s-.075.119-.105.153c-.1.137-.195.256-.27.359a1.654,1.654,0,0,1-.315.238,1.1,1.1,0,0,1-.465.12,1.059,1.059,0,0,1-.735-.324c-.045-.051-.135-.154-.255-.307l-3.256-4.384a5.591,5.591,0,0,1-.3-.495,1.868,1.868,0,0,1-.075-.477,1.339,1.339,0,0,1,.33-.9,1.026,1.026,0,0,1,.795-.376.933.933,0,0,1,.585.188,1.587,1.587,0,0,1,.435.495l2.476,3.326,2.476-3.343a2.091,2.091,0,0,1,.435-.495,1.032,1.032,0,0,1,.585-.171A.985.985,0,0,1,2435.444,1249.341Zm-3.166,5.6v4.69a1.321,1.321,0,0,1-.3.87,1,1,0,0,1-.825.41,1.052,1.052,0,0,1-.81-.393,1.316,1.316,0,0,1-.315-.887v-5.652C2430.4,1254.366,2431.9,1255.328,2432.278,1254.936Z" fill="#fff"/>
        <path id="Path_304" data-name="Path 304" d="M2408.766,1253.81l-3.151,6.413a1.263,1.263,0,0,1-.42.495,1.02,1.02,0,0,1-1.4-.205,1.347,1.347,0,0,1-.315-.887,1.4,1.4,0,0,1,.135-.614l3.6-7.3C2407.431,1251.3,2411.477,1248.106,2408.766,1253.81Zm.825-4.776a.765.765,0,0,1,.316.187,1.143,1.143,0,0,1,.33.444l4.591,9.347a1.231,1.231,0,0,1,.15.614,1.343,1.343,0,0,1-.345.921,1.012,1.012,0,0,1-.78.359,1.056,1.056,0,0,1-.586-.188,1.4,1.4,0,0,1-.42-.495l-3.826-7.761a1.228,1.228,0,0,0-.255-.375,1.155,1.155,0,0,0-.3-.256.035.035,0,0,0-.03-.034,1.356,1.356,0,0,0-.555-.188h-.15a1.29,1.29,0,0,0-.51.1l.99-2.03a1.208,1.208,0,0,1,.39-.495.992.992,0,0,1,.63-.222A.8.8,0,0,1,2409.591,1249.034Z" fill="#fff"/>
      </g>
    </g>
    <g id="Group_73" data-name="Group 73">
      <g id="Group_71" data-name="Group 71">
        <path id="Path_305" data-name="Path 305" d="M2382.422,1267.965c-.252.478-1.369.26-1.362.308a2.4,2.4,0,0,0-1.3-.374,2.363,2.363,0,0,0-1.192.311,2.742,2.742,0,0,0-.945.857,3.483,3.483,0,0,0,.123,4.049,2.519,2.519,0,0,0,2.014,1.013,2.473,2.473,0,0,0,1.877-.857l.027-.031a.041.041,0,0,1,.028-.016.88.88,0,0,1,.7-.311.9.9,0,0,1,.726.342,1.133,1.133,0,0,1,.3.826,1.162,1.162,0,0,1-.315.825.054.054,0,0,1-.014.031,5.165,5.165,0,0,1-1.521,1.122,4.248,4.248,0,0,1-3.973-.187,5.123,5.123,0,0,1-1.671-1.6,5.84,5.84,0,0,1-.945-3.255,5.685,5.685,0,0,1,1.329-3.769,5.008,5.008,0,0,1,1.561-1.246,4.027,4.027,0,0,1,1.891-.436C2380.7,1265.563,2383.417,1266.079,2382.422,1267.965Z" fill="#fff"/>
        <path id="Path_306" data-name="Path 306" d="M2403.417,1265.563h.11a.857.857,0,0,1,.7.373,1.244,1.244,0,0,1,0,1.589.958.958,0,0,1-.726.374h-4.521a.773.773,0,0,0-.548.233,1,1,0,0,0-.3.732,1.014,1.014,0,0,0,.247.686.8.8,0,0,0,.6.3h.438a1.893,1.893,0,0,0-.26.327,1.7,1.7,0,0,0-.11,1.432,1.556,1.556,0,0,0,.37.577h-.548a2.647,2.647,0,0,1-1.356-.452,3.3,3.3,0,0,1-1-1.106,3.641,3.641,0,0,1-.438-1.76,3.521,3.521,0,0,1,.63-2.055,3.185,3.185,0,0,1,.986-.9,2.362,2.362,0,0,1,1.233-.342h4.493Zm-1.63,4.3a2.526,2.526,0,0,1,1.48.592,2.577,2.577,0,0,1,.74.841,3.515,3.515,0,0,1,.506,1.869,3.464,3.464,0,0,1-.219,1.23,3.377,3.377,0,0,1-.671,1.153,3.086,3.086,0,0,1-.973.7,2.683,2.683,0,0,1-1.055.218h-4.37c-.137,0-.219-.016-.274-.016a1.031,1.031,0,0,1-.63-.405,1.209,1.209,0,0,1-.246-.747,1.226,1.226,0,0,1,.246-.764.939.939,0,0,1,.713-.4h4.561a.825.825,0,0,0,.535-.2.987.987,0,0,0,.329-.763.973.973,0,0,0-.261-.7.751.751,0,0,0-.589-.28h-2.74c.076-.078-.659-.652-.6-1.249.05-.479.916-1,.843-1.072Z" fill="#fff"/>
        <path id="Path_307" data-name="Path 307" d="M2413.021,1265.563a.892.892,0,0,1,.753.389,1.168,1.168,0,0,1,.26.779v5.98a1.291,1.291,0,0,0-.493-.405,1.052,1.052,0,0,0-.534-.124h-5.357v3.115a1.148,1.148,0,0,1-.274.794.917.917,0,0,1-.753.374,1.044,1.044,0,0,1-.74-.343,1.269,1.269,0,0,1-.288-.825v-5.981a1.875,1.875,0,0,0,.357.327,1.271,1.271,0,0,0,.616.2h5.411v-3.131a1.215,1.215,0,0,1,.247-.748.911.911,0,0,1,.767-.4Zm-6.384,0a.892.892,0,0,1,.753.389,1.167,1.167,0,0,1,.26.779v4.075c0,.28-2.041-.436-2.055-.747v-3.344a1.215,1.215,0,0,1,.247-.748.911.911,0,0,1,.767-.4Zm7.4,5.64v4.094a1.149,1.149,0,0,1-.274.794.917.917,0,0,1-.753.374,1,1,0,0,1-.74-.343,1.269,1.269,0,0,1-.288-.825v-3.855C2411.979,1271.115,2414.034,1270.892,2414.034,1271.2Z" fill="#fff"/>
      </g>
      <g id="Group_72" data-name="Group 72">
        <path id="Path_308" data-name="Path 308" d="M2389.442,1269.868l-2.884,5.87a1.162,1.162,0,0,1-.385.453.935.935,0,0,1-1.277-.187,1.235,1.235,0,0,1-.288-.812,1.288,1.288,0,0,1,.123-.562l3.3-6.682C2388.219,1267.573,2391.922,1264.648,2389.442,1269.868Zm.755-4.371a.7.7,0,0,1,.288.171,1.038,1.038,0,0,1,.3.406l4.2,8.556a1.128,1.128,0,0,1,.137.562,1.229,1.229,0,0,1-.316.843.925.925,0,0,1-.714.328.964.964,0,0,1-.536-.172,1.286,1.286,0,0,1-.384-.453l-3.5-7.1a1.126,1.126,0,0,0-.233-.344,1.082,1.082,0,0,0-.275-.234.031.031,0,0,0-.028-.031,1.231,1.231,0,0,0-.508-.172h-.137a1.184,1.184,0,0,0-.467.094l.907-1.858a1.092,1.092,0,0,1,.357-.453.905.905,0,0,1,.576-.2A.74.74,0,0,1,2390.2,1265.5Z" fill="#fff"/>
      </g>
    </g>
  </g>
</svg>
