<svg enable-background="new 0 0 500 500" viewBox="0 0 500 500" xmlns="http://www.w3.org/2000/svg" xmlns:xlink="http://www.w3.org/1999/xlink"><radialGradient id="a" cx="250" cy="250" gradientUnits="userSpaceOnUse" r="245.9999"><stop offset=".5128" stop-color="#fff"/><stop offset="1" stop-color="#dee0ed"/></radialGradient><circle cx="250" cy="250" fill="url(#a)" r="246"/><g fill="#c1172a"><path d="m250 430c-8 0-20.9-14.5-31.7-46.8-5.2-15.6-9.4-33.6-12.4-53.1h88.2c-3 19.5-7.2 37.5-12.4 53.1-10.8 32.3-23.7 46.8-31.7 46.8zm44.1-260.1h-88.2c3-19.5 7.2-37.5 12.4-53.1 10.8-32.3 23.7-46.8 31.7-46.8m161.2 99.9h-86.7c-5.4-37-14.6-70.1-27.4-93.7 50 13.6 91.4 48.2 114.1 93.7zm-208.3-93.7c-12.9 23.6-22.1 56.7-27.4 93.7h-86.7c22.7-45.5 64.1-80.1 114.1-93.7zm-114.1 253.9h86.7c5.4 37 14.6 70.1 27.4 93.7-50-13.6-91.4-48.2-114.1-93.7zm208.3 93.7c12.9-23.6 22.1-56.7 27.4-93.7h86.7c-22.7 45.5-64.1 80.1-114.1 93.7zm0 0"/><path d="m205 222.5-19.6 53h-11.9l-13.7-36.5-13.9 36.5h-11.9l-19.5-53h11.7l14 39.1 14.6-39.1h10.4l14.3 39.3 14.4-39.3z"/><path d="m295.2 222.5-19.6 53h-11.9l-13.7-36.5-13.9 36.5h-11.9l-19.5-53h11.7l14 39.1 14.6-39.1h10.4l14.3 39.3 14.4-39.3z"/><path d="m385.5 222.5-19.6 53h-11.9l-13.7-36.5-13.9 36.5h-11.9l-19.5-53h11.7l14 39.1 14.6-39.1h10.4l14.3 39.3 14.4-39.3z"/></g></svg>